<svg preserveAspectRatio="none" width="100%" height="100%" overflow="visible" style="display: block;" viewBox="0 0 15.6538 18" fill="none" xmlns="http://www.w3.org/2000/svg">
<g id="Group 882">
<path id="Vector (Stroke)" d="M14.3015 3.88886C14.3015 3.61314 14.1741 3.35299 13.9563 3.1838L11.8373 1.53948L11.8372 1.53944C11.6807 1.41795 11.4883 1.35208 11.2901 1.35208H4.36377C4.1719 1.35208 3.98509 1.41403 3.83137 1.52826L3.8166 1.53948L1.69763 3.1838C1.47979 3.35299 1.35239 3.61314 1.35239 3.88886V14.0291C1.35239 14.2944 1.47046 14.5457 1.67396 14.7148L1.68373 14.7228L1.6839 14.723L3.82038 16.4496L3.82055 16.4497C3.97909 16.5779 4.17694 16.6479 4.38147 16.6479H11.2731C11.469 16.6479 11.6591 16.5835 11.8145 16.465L13.97 14.723C14.1798 14.5534 14.3015 14.2985 14.3015 14.0291V3.88886ZM15.6538 14.0291C15.6538 14.707 15.3474 15.3483 14.8201 15.7745L14.1707 16.2993H14.1718L12.6842 17.5012C12.2849 17.8238 11.7869 18 11.2731 18H4.38147C3.86795 18 3.36978 17.8242 2.97012 17.501L0.833808 15.7745C0.306344 15.3484 9.43328e-05 14.7067 9.15527e-05 14.0291V3.88886C9.15527e-05 3.19528 0.320678 2.54098 0.868343 2.11577L0.86849 2.11567L2.98746 0.471356L3.00599 0.457139C3.39617 0.160814 3.87317 0 4.36377 0H11.2901C11.7884 2.92264e-07 12.2726 0.165653 12.6664 0.471356L14.7854 2.11567L14.7856 2.11577C15.3332 2.54098 15.6538 3.19528 15.6538 3.88886V14.0291Z" fill="var(--fill-0, #7E480F)"/>
<path id="Vector" d="M12.8895 3.51813L11.6291 2.49011C11.4441 2.33927 11.2127 2.25672 10.974 2.25672H4.64749C4.40879 2.25672 4.17742 2.33905 3.99246 2.49011L2.7316 3.51835C2.48987 3.71544 2.34958 4.01107 2.34937 4.32334L2.34634 13.6762C2.34634 13.9887 2.48663 14.2846 2.72857 14.4819L3.989 15.5099C4.17397 15.6607 4.40533 15.7433 4.64404 15.7433H10.9706C11.2093 15.7433 11.4406 15.6609 11.6256 15.5099L12.8865 14.4817C13.1282 14.2846 13.2685 13.9889 13.2687 13.6767L13.2717 4.32378C13.2717 4.01129 13.1314 3.71544 12.8895 3.51813ZM4.79922 5.39696C4.79922 5.12488 5.01958 4.90424 5.2913 4.90424H7.80439C7.53266 6.36166 6.30461 7.48542 4.799 7.59606V5.39718L4.79922 5.39696ZM7.84712 12.5784C7.84712 12.8505 7.62676 13.0711 7.35504 13.0711H5.29152C5.01979 13.0711 4.79943 12.8505 4.79943 12.5784V7.61573C6.40929 7.73351 7.70209 9.00529 7.84734 10.6092V12.5784H7.84712ZM11.0137 8.66903C11.0137 9.69381 10.1841 10.5245 9.16065 10.5245H7.88468C8.06986 8.93117 9.38597 7.68423 11.0137 7.60989V8.66925V8.66903ZM11.0137 7.60211C9.46259 7.53101 8.1946 6.39084 7.91835 4.90424H9.16065C10.1841 4.90424 11.0137 5.73495 11.0137 6.75973V7.60211Z" fill="var(--fill-0, #7E480F)"/>
</g>
</svg>
