<svg preserveAspectRatio="none" width="100%" height="100%" overflow="visible" style="display: block;" viewBox="0 0 20 20" fill="none" xmlns="http://www.w3.org/2000/svg">
<g id="Group 48095598">
<circle id="Ellipse 769" cx="10" cy="10" r="10" fill="var(--fill-0, #E5F2FF)"/>
<path id="Vector" d="M11.1285 10.7305V11.4245C11.1285 12.3822 11.9361 13.1595 12.931 13.1595H14.373V13.5065C14.373 14.079 13.8864 14.5475 13.2915 14.5475H6.0815C5.48668 14.5475 5 14.079 5 13.5065V8.64849C5 8.07248 5.48668 7.6075 6.0815 7.6075H13.2915C13.8864 7.6075 14.373 8.07248 14.373 8.64849V8.99549H12.931C11.9361 8.99549 11.1285 9.77276 11.1285 10.7305ZM15.4545 10.7305V11.4245C15.4545 11.7298 15.314 12.0074 15.094 12.1983C14.903 12.3648 14.647 12.4655 14.373 12.4655H12.931C12.3362 12.4655 11.8495 11.997 11.8495 11.4245V10.7305C11.8495 10.1545 12.3362 9.68949 12.931 9.68949H14.373C14.647 9.68949 14.903 9.79011 15.094 9.95667C15.314 10.1441 15.4545 10.4217 15.4545 10.7305ZM13.652 11.0775C13.652 10.8866 13.4898 10.7305 13.2915 10.7305C13.0933 10.7305 12.931 10.8866 12.931 11.0775C12.931 11.2683 13.0933 11.4245 13.2915 11.4245C13.4898 11.4245 13.652 11.2683 13.652 11.0775ZM12.4299 6.21257C12.3398 5.91762 12.1271 5.67819 11.8387 5.5498C11.5503 5.42488 11.2187 5.42488 10.9303 5.55327L7.90564 6.9135H12.639L12.4299 6.21257Z" fill="var(--fill-0, #023DFF)"/>
</g>
</svg>
