<svg preserveAspectRatio="none" width="100%" height="100%" overflow="visible" style="display: block;" viewBox="0 0 819.174 174.943" fill="none" xmlns="http://www.w3.org/2000/svg">
<g id="Weave">
<path id="Vector" d="M430.469 41.1278C430.469 41.1278 459.353 67.5615 513.384 66.1003C562.363 64.7742 614.117 32.0598 697.473 31.9923C761.159 31.9401 819.174 73.1116 819.174 73.1116V147.357H430.469V41.1278Z" fill="var(--fill-0, #F8FAFC)" fill-opacity="0.15"/>
<path id="Vector_2" d="M41.7633 9.13563C41.7633 9.13563 70.6477 35.5693 124.679 34.1081C173.658 32.7819 225.411 0.0675841 308.767 4.95681e-05C372.454 -0.0521362 430.469 41.1194 430.469 41.1194V115.364H41.7633V9.13563Z" fill="var(--fill-0, #F8FAFC)" fill-opacity="0.15"/>
<path id="Vector_3" d="M388.281 55.1904C388.281 55.1904 417.166 81.624 471.197 80.1628C520.176 78.8367 571.929 46.1223 655.285 46.0548C718.972 46.0026 776.987 87.1741 776.987 87.1741V161.419H388.281V55.1904Z" fill="var(--fill-0, #F8FAFC)" fill-opacity="0.1"/>
<path id="Vector_4" d="M0 23.5498C0 23.5498 28.8844 49.9834 82.9154 48.5222C131.895 47.1961 183.648 14.4817 267.004 14.4142C330.691 14.362 388.705 55.5335 388.705 55.5335V129.779H0V23.5498Z" fill="var(--fill-0, #F8FAFC)" fill-opacity="0.1"/>
<path id="Vector_5" d="M330.469 68.7138C330.469 68.7138 359.353 95.1474 413.384 93.6862C462.363 92.3601 514.117 59.6457 597.473 59.5782C661.159 59.526 719.174 100.698 719.174 100.698V174.943H330.469V68.7138Z" fill="var(--fill-0, #F8FAFC)" fill-opacity="0.05"/>
</g>
</svg>
