<svg preserveAspectRatio="none" width="100%" height="100%" overflow="visible" style="display: block;" viewBox="0 0 13.9145 16" fill="none" xmlns="http://www.w3.org/2000/svg">
<g id="Group 882">
<path id="Vector (Stroke)" d="M12.7124 3.45676C12.7124 3.21168 12.5991 2.98044 12.4055 2.83004L10.522 1.36843L10.5219 1.36839C10.3828 1.2604 10.2118 1.20185 10.0356 1.20185H3.87883C3.70827 1.20185 3.54222 1.25691 3.40558 1.35846L3.39246 1.36843L1.50892 2.83004C1.31528 2.98044 1.20205 3.21168 1.20205 3.45676V12.4703C1.20205 12.7061 1.30699 12.9295 1.48788 13.0799L1.49656 13.087L1.49672 13.0871L3.39581 14.6219L3.39596 14.622C3.53689 14.7359 3.71276 14.7982 3.89456 14.7982H10.0204C10.1946 14.7982 10.3636 14.7409 10.5017 14.6355L12.4177 13.0871C12.6042 12.9364 12.7124 12.7098 12.7124 12.4703V3.45676ZM13.9144 12.4703C13.9144 13.0729 13.6421 13.643 13.1733 14.0218L12.5961 14.4883H12.5971L11.2748 15.5566C10.9198 15.8434 10.4771 16 10.0204 16H3.89456C3.43809 16 2.99528 15.8437 2.64003 15.5564L0.741082 14.0218C0.272225 13.643 2.47121e-06 13.0727 0 12.4703V3.45676C0 2.84025 0.284966 2.25865 0.771779 1.88069L0.77191 1.88059L2.65544 0.418983L2.67191 0.406346C3.01873 0.142945 3.44273 0 3.87883 0H10.0356C10.4785 2.59791e-07 10.9089 0.147247 11.259 0.418983L13.1425 1.88059L13.1426 1.88069C13.6294 2.25865 13.9144 2.84025 13.9144 3.45676V12.4703Z" fill="var(--fill-0, #94590A)"/>
<path id="Vector" d="M11.4573 3.12723L10.3369 2.21343C10.1725 2.07935 9.9668 2.00597 9.75462 2.00597H4.13103C3.91885 2.00597 3.71319 2.07916 3.54878 2.21343L2.42802 3.12742C2.21315 3.30261 2.08845 3.5654 2.08826 3.84297L2.08557 12.1566C2.08557 12.4344 2.21027 12.6974 2.42533 12.8728L3.54571 13.7866C3.71012 13.9207 3.91578 13.994 4.12796 13.994H9.75155C9.96373 13.994 10.1694 13.9208 10.3338 13.7866L11.4546 12.8726C11.6694 12.6974 11.7941 12.4346 11.7943 12.157L11.797 3.84336C11.797 3.56559 11.6723 3.30261 11.4573 3.12723ZM4.2659 4.7973C4.2659 4.55545 4.46178 4.35932 4.70331 4.35932H6.93717C6.69563 5.65481 5.60403 6.6537 4.26571 6.75206V4.79749L4.2659 4.7973ZM6.97515 11.1808C6.97515 11.4226 6.77928 11.6188 6.53774 11.6188H4.7035C4.46197 11.6188 4.26609 11.4226 4.26609 11.1808V6.76954C5.69707 6.87423 6.84623 8.00471 6.97535 9.43043V11.1808H6.97515ZM9.78992 7.70581C9.78992 8.61672 9.05246 9.35513 8.14273 9.35513H7.00853C7.17314 7.93882 8.34302 6.83043 9.78992 6.76435V7.706V7.70581ZM9.78992 6.75743C8.41112 6.69424 7.28403 5.68074 7.03846 4.35932H8.14273C9.05246 4.35932 9.78992 5.09774 9.78992 6.00865V6.75743Z" fill="var(--fill-0, #94590A)"/>
</g>
</svg>
