<svg preserveAspectRatio="none" width="100%" height="100%" overflow="visible" style="display: block;" viewBox="0 0 6.13223 5.29134" fill="none" xmlns="http://www.w3.org/2000/svg">
<path id="Vector" d="M5.75554 2.27426H3.53874V0.371408C3.53874 0.166325 3.3701 0 3.16204 0C2.95442 0 2.78579 0.166325 2.78579 0.371408V2.27426H0.376517C0.168591 2.27426 0 2.44054 0 2.64567C0 2.8508 0.168591 3.01708 0.376517 3.01708H2.78579V4.91993C2.78579 5.12501 2.95442 5.29134 3.16204 5.29134C3.3701 5.29134 3.53874 5.12501 3.53874 4.91993V3.01708H5.75554C5.96359 3.01708 6.13223 2.8508 6.13223 2.64567C6.13223 2.44054 5.96359 2.27426 5.75554 2.27426Z" fill="var(--fill-0, #FFEC4F)"/>
</svg>
