<svg preserveAspectRatio="none" width="100%" height="100%" overflow="visible" style="display: block;" viewBox="0 0 41.6486 41.9158" fill="none" xmlns="http://www.w3.org/2000/svg">
<path id="Vector" d="M14.426 0.82996H27.2226C29.6718 0.82996 31.487 0.830224 32.9237 0.948397C34.3558 1.06622 35.38 1.2993 36.2532 1.74717C37.8266 2.55414 39.1059 3.84205 39.9075 5.42588C40.3525 6.30508 40.584 7.33623 40.701 8.77817C40.8184 10.2244 40.8186 12.0515 40.8186 14.5169V27.399C40.8186 29.8646 40.8184 31.692 40.701 33.1382C40.584 34.5801 40.3525 35.611 39.9075 36.4903C39.1059 38.0737 37.8266 39.3617 36.2532 40.1686C35.38 40.6166 34.3558 40.8499 32.9237 40.9676C31.487 41.0858 29.6718 41.0858 27.2226 41.0858H14.426C11.9769 41.0858 10.162 41.0858 8.72539 40.9676C7.29303 40.8499 6.26869 40.6166 5.39533 40.1686C3.82206 39.3617 2.5427 38.0737 1.74107 36.4903C1.29615 35.611 1.06462 34.5801 0.947589 33.1382C0.83021 31.692 0.82996 29.8646 0.82996 27.399V14.5169C0.82996 12.0515 0.830223 10.2244 0.947589 8.77817C1.06462 7.33628 1.2961 6.30508 1.74107 5.42588C2.5427 3.84205 3.82206 2.55414 5.39533 1.74717C6.26869 1.29921 7.29303 1.06622 8.72539 0.948397C10.162 0.830224 11.977 0.82996 14.426 0.82996Z" stroke="var(--stroke-0, white)" stroke-opacity="0.6" stroke-width="1.65992"/>
</svg>
