<svg width="375" height="175" viewBox="0 0 375 175" fill="none" xmlns="http://www.w3.org/2000/svg">
<path d="M284.311 41.1278C284.311 41.1278 255.427 67.5615 201.396 66.1003C152.417 64.7741 100.663 32.0598 17.3071 31.9923C-46.3794 31.9401 -104.394 73.1116 -104.394 73.1116L-104.394 147.357L284.311 147.357L284.311 41.1278Z" fill="#F8FAFC" fill-opacity="0.15"/>
<path d="M673.017 9.13564C673.017 9.13564 644.132 35.5693 590.101 34.1081C541.122 32.782 489.369 0.0676002 406.013 7.29103e-05C342.326 -0.0521073 284.311 41.1194 284.311 41.1194L284.311 115.364L673.017 115.364L673.017 9.13564Z" fill="#F8FAFC" fill-opacity="0.15"/>
<path d="M326.499 55.1903C326.499 55.1903 297.614 81.624 243.583 80.1628C194.604 78.8366 142.851 46.1223 59.4946 46.0548C-4.19186 46.0026 -62.2065 87.1741 -62.2065 87.1741L-62.2065 161.419L326.499 161.419L326.499 55.1903Z" fill="#F8FAFC" fill-opacity="0.1"/>
<path d="M714.78 23.5497C714.78 23.5497 685.896 49.9833 631.865 48.5221C582.885 47.196 531.132 14.4817 447.776 14.4141C384.089 14.362 326.075 55.5335 326.075 55.5335L326.075 129.779L714.78 129.778L714.78 23.5497Z" fill="#F8FAFC" fill-opacity="0.1"/>
<path d="M384.311 68.7138C384.311 68.7138 355.427 95.1474 301.396 93.6862C252.417 92.3601 200.663 59.6457 117.307 59.5782C53.6206 59.526 -4.39401 100.698 -4.39401 100.698L-4.394 174.943L384.311 174.943L384.311 68.7138Z" fill="#F8FAFC" fill-opacity="0.05"/>
</svg>
