<svg preserveAspectRatio="none" width="100%" height="100%" overflow="visible" style="display: block;" viewBox="0 0 20.8673 24" fill="none" xmlns="http://www.w3.org/2000/svg">
<g id="Group 881">
<path id="Vector (Stroke)" d="M14.6571 2.61925C15.0661 2.61925 15.4625 2.76029 15.7798 3.01856L15.7799 3.01864L17.4621 4.3887L17.4621 4.38875C17.8766 4.72647 18.1173 5.23284 18.1173 5.76762L18.1132 18.2331C18.1132 18.7677 17.8724 19.2734 17.4581 19.611L17.4581 19.611L15.7756 20.9816L15.7756 20.9816C15.4584 21.24 15.062 21.381 14.6527 21.381H6.20995C5.80091 21.381 5.4045 21.24 5.08719 20.9817L5.08711 20.9817L3.40492 19.6116L3.40486 19.6115C2.99037 19.2738 2.74973 18.7674 2.74973 18.2326L2.75377 5.76723C2.7538 5.23255 2.99459 4.72687 3.40888 4.38932L5.09132 3.0187C5.40849 2.76024 5.805 2.61925 6.21424 2.61925H14.6571ZM6.21424 3.40647C5.98602 3.40647 5.76519 3.48506 5.5886 3.62896L5.58858 3.62898L3.90611 4.99963C3.67493 5.188 3.54096 5.46975 3.54096 5.76734L3.53694 18.2328C3.53698 18.5308 3.67111 18.8131 3.90209 19.0013L5.58411 20.3712L5.60084 20.3845C5.77496 20.5201 5.98921 20.5938 6.20995 20.5938H14.6527C14.881 20.5938 15.1018 20.5152 15.2784 20.3713L15.2784 20.3713L16.9609 19.0007C17.1921 18.8123 17.326 18.5305 17.326 18.233L17.3301 5.76762L17.3297 5.73972C17.3216 5.45197 17.1887 5.18139 16.9649 4.99904L15.2829 3.62907C15.1058 3.48498 14.8849 3.40647 14.6571 3.40647H6.21424Z" fill="var(--fill-0, #64748B)"/>
<path id="Vector (Stroke)_2" d="M19.0681 5.18392C19.0681 4.81556 18.8978 4.46785 18.6072 4.24236L18.6071 4.24225L15.7819 2.04936L15.7817 2.04919C15.5731 1.8872 15.3161 1.79914 15.0511 1.79914H5.81621C5.55152 1.79914 5.29427 1.88729 5.08524 2.04947L2.26028 4.24214L2.26031 4.24217C1.96931 4.46812 1.79914 4.81576 1.79914 5.18392V18.7063C1.79914 19.0664 1.96177 19.407 2.24187 19.6334L2.24192 19.6334L5.09037 21.9358L5.09046 21.9359C5.30252 22.1073 5.56704 22.2009 5.83976 22.2009H15.0284C15.2898 22.2009 15.5436 22.1149 15.751 21.9568L18.6254 19.6334C18.9055 19.4068 19.0681 19.0661 19.0681 18.7063V5.18392ZM20.8673 18.7063C20.8673 19.6099 20.4587 20.4647 19.7565 21.0325L19.7563 21.0326L18.8864 21.7358H18.8867L16.9088 23.335C16.3765 23.7653 15.7127 24 15.0284 24H5.83976C5.15543 24 4.49162 23.7653 3.95931 23.335L1.11097 21.0327L1.07824 21.0058C0.395496 20.4379 2.60062e-06 19.5956 0 18.7063V5.18392C0 4.25992 0.427063 3.38779 1.15692 2.82108L1.15703 2.821L3.98221 0.628108L3.98238 0.627996C4.50681 0.221112 5.15202 0 5.81621 0H15.0511C15.7149 0 16.3604 0.220601 16.8853 0.628249L16.8852 0.628277L19.7101 2.82089C20.4404 3.38748 20.8673 4.26011 20.8673 5.18392V18.7063Z" fill="var(--fill-0, #64748B)"/>
<g id="Group">
<path id="Vector" d="M10.609 14.0483H12.3118C13.6776 14.0483 14.7847 12.9412 14.7847 11.5755V10.1638C12.6125 10.2629 10.8558 11.9247 10.609 14.0486V14.0483Z" fill="var(--fill-0, #64748B)"/>
<path id="Vector_2" d="M10.502 6.55771H7.14832C6.78562 6.55771 6.4916 6.85172 6.4916 7.21443V10.1451C8.50056 9.99765 10.1396 8.49999 10.5023 6.55742L10.502 6.55771Z" fill="var(--fill-0, #64748B)"/>
<path id="Vector_3" d="M14.7847 10.1531V9.03054C14.7847 7.66479 13.6776 6.55771 12.3118 6.55771H10.6538C11.0225 8.53908 12.7148 10.0586 14.7847 10.1534V10.1531Z" fill="var(--fill-0, #64748B)"/>
<path id="Vector_4" d="M6.49132 10.1715V16.7856C6.49132 17.1483 6.78533 17.4423 7.14804 17.4423H9.90195C10.2647 17.4423 10.5587 17.1483 10.5587 16.7856V14.161C10.3647 12.0236 8.63938 10.3285 6.49103 10.1715H6.49132Z" fill="var(--fill-0, #64748B)"/>
</g>
</g>
</svg>
