<svg preserveAspectRatio="none" width="100%" height="100%" overflow="visible" style="display: block;" viewBox="0 0 20 20" fill="none" xmlns="http://www.w3.org/2000/svg">
<g id="Group 48095598">
<circle id="Ellipse 769" cx="10" cy="10" r="10" fill="var(--fill-0, #E5F2FF)"/>
<g id="lightbulb-on 1" clip-path="url(#clip0_0_1019)">
<path id="Vector" d="M12.1931 5.13392L12.7592 4.21267C12.8912 3.99633 13.1735 3.92942 13.3894 4.06233C13.6053 4.19479 13.6726 4.47667 13.5397 4.69254L12.9737 5.61379C12.8875 5.75496 12.7367 5.83242 12.5827 5.83242C12.5007 5.83242 12.4182 5.81042 12.3435 5.76458C12.1276 5.63213 12.0602 5.34979 12.1931 5.13392ZM6.98737 5.61333C7.07354 5.7545 7.22479 5.83242 7.37879 5.83242C7.46037 5.83242 7.54287 5.81042 7.61758 5.76504C7.83346 5.63258 7.90129 5.35071 7.76883 5.13483L7.20371 4.21313C7.07125 3.99725 6.78892 3.92988 6.5735 4.06188C6.35762 4.19433 6.28979 4.47621 6.42225 4.69208L6.98737 5.61333ZM5.98546 6.62533L5.16137 6.23071C4.93404 6.12025 4.65858 6.21742 4.55042 6.44613C4.44087 6.67438 4.53758 6.948 4.76583 7.05708L5.58992 7.45171C5.65362 7.48242 5.721 7.49708 5.78746 7.49708C5.95842 7.49708 6.1225 7.40129 6.20087 7.23675C6.31042 7.0085 6.21371 6.73442 5.98546 6.62533ZM9.93767 5.83379C7.41042 5.8755 5.4075 8.6145 6.77975 11.2527C6.98829 11.6533 7.29767 11.9887 7.62996 12.2945C7.756 12.4104 7.85362 12.5539 7.93704 12.7079H9.54167V10.3319C9.00954 10.1421 8.625 9.63796 8.625 9.04121C8.625 8.78775 8.82988 8.58288 9.08333 8.58288C9.33679 8.58288 9.54167 8.78775 9.54167 9.04121C9.54167 9.29467 9.747 9.49954 10 9.49954C10.253 9.49954 10.4583 9.29421 10.4583 9.04121C10.4583 8.78821 10.6632 8.58288 10.9167 8.58288C11.1701 8.58288 11.375 8.78775 11.375 9.04121C11.375 9.63796 10.9905 10.1421 10.4583 10.3319V12.7079H12.0478C12.1523 12.5287 12.2871 12.3595 12.4635 12.2124C12.7656 11.9603 13.0498 11.6794 13.2244 11.3269C14.0205 9.71679 13.7047 7.99988 12.5708 6.88521C11.8645 6.19038 10.929 5.81867 9.93767 5.83379ZM8.163 13.7524C8.12633 14.4243 8.62958 15 9.30242 15H10.687C11.32 15 11.8329 14.4871 11.8329 13.8542V13.625H8.15796C8.15796 13.6681 8.16575 13.7084 8.163 13.7524ZM15.4601 6.42917C15.3556 6.19863 15.0848 6.09458 14.8542 6.2L13.9687 6.59967C13.7377 6.70371 13.635 6.97504 13.7395 7.20558C13.8161 7.37517 13.9825 7.47554 14.1575 7.47554C14.2203 7.47554 14.2845 7.46271 14.3455 7.43475L15.231 7.03508C15.462 6.93104 15.5646 6.65971 15.4601 6.42917Z" fill="var(--fill-0, #023DFF)"/>
</g>
</g>
<defs>
<clipPath id="clip0_0_1019">
<rect width="11" height="11" fill="white" transform="translate(4.5 4)"/>
</clipPath>
</defs>
</svg>
