<svg preserveAspectRatio="none" width="100%" height="100%" overflow="visible" style="display: block;" viewBox="0 0 20.8716 24" fill="none" xmlns="http://www.w3.org/2000/svg">
<g id="Group 882">
<path id="Vector (Stroke)" d="M19.0686 5.18514C19.0686 4.81752 18.8987 4.47066 18.6083 4.24506L15.783 2.05264L15.7829 2.05259C15.5742 1.8906 15.3176 1.80277 15.0534 1.80277H5.81824C5.56241 1.80277 5.31333 1.88537 5.10837 2.03768L5.08868 2.05264L2.26338 4.24506C1.97293 4.47066 1.80307 4.81752 1.80307 5.18514V18.7054C1.80307 19.0592 1.96049 19.3942 2.23182 19.6198L2.24485 19.6304L2.24507 19.6306L5.09372 21.9328L5.09394 21.933C5.30533 22.1039 5.56914 22.1972 5.84184 22.1972H15.0306C15.2918 22.1972 15.5453 22.1113 15.7525 21.9533L18.6265 19.6306C18.9062 19.4046 19.0686 19.0647 19.0686 18.7054V5.18514ZM20.8716 18.7054C20.8716 19.6093 20.4631 20.4645 19.76 21.0327L18.8942 21.7324H18.8956L16.9121 23.3349C16.3797 23.7651 15.7157 24 15.0306 24H5.84184C5.15714 24 4.49292 23.7656 3.96004 23.3347L1.11162 21.0327C0.408337 20.4646 3.70681e-06 19.609 0 18.7054V5.18514C0 4.26038 0.427449 3.38797 1.15767 2.82103L1.15787 2.82089L3.98316 0.628474L4.00786 0.609519C4.5281 0.214418 5.1641 0 5.81824 0H15.0534C15.7177 3.89686e-07 16.3633 0.220871 16.8885 0.628474L19.7138 2.82089L19.7139 2.82103C20.4442 3.38797 20.8716 4.26037 20.8716 5.18514V18.7054Z" fill="var(--fill-0, #023DFF)"/>
<path id="Vector" d="M17.1859 4.69084L15.5053 3.32015C15.2587 3.11903 14.9502 3.00896 14.6319 3.00896H6.19655C5.87828 3.00896 5.56979 3.11874 5.32317 3.32015L3.64203 4.69113C3.31972 4.95392 3.13267 5.34809 3.13239 5.76446L3.12836 18.235C3.12836 18.6516 3.31541 19.0461 3.638 19.3092L5.31857 20.6799C5.56519 20.881 5.87367 20.991 6.19195 20.991H14.6273C14.9456 20.991 15.2541 20.8813 15.5007 20.6799L17.1819 19.3089C17.5042 19.0461 17.6912 18.6519 17.6915 18.2355L17.6955 5.76504C17.6955 5.34838 17.5085 4.95392 17.1859 4.69084ZM6.39885 7.19595C6.39885 6.83318 6.69267 6.53899 7.05497 6.53899H10.4058C10.0434 8.48222 8.40604 9.98056 6.39857 10.1281V7.19624L6.39885 7.19595ZM10.4627 16.7712C10.4627 17.134 10.1689 17.4282 9.80662 17.4282H7.05525C6.69295 17.4282 6.39914 17.134 6.39914 16.7712V10.1543C8.54561 10.3113 10.2693 12.0071 10.463 14.1457V16.7712H10.4627ZM14.6849 11.5587C14.6849 12.9251 13.5787 14.0327 12.2141 14.0327H10.5128C10.7597 11.9082 12.5145 10.2456 14.6849 10.1465V11.559V11.5587ZM14.6849 10.1362C12.6167 10.0414 10.926 8.52112 10.5577 6.53899H12.2141C13.5787 6.53899 14.6849 7.6466 14.6849 9.01297V10.1362Z" fill="var(--fill-0, #023DFF)"/>
</g>
</svg>
