<svg preserveAspectRatio="none" width="100%" height="100%" overflow="visible" style="display: block;" viewBox="0 0 40.716 40.9883" fill="none" xmlns="http://www.w3.org/2000/svg">
<path id="Vector" d="M0 14.0531C0 9.13404 0 6.67449 0.950951 4.79567C1.78743 3.14301 3.12216 1.79936 4.76387 0.957291C6.63021 -2.10259e-07 9.07338 0 13.9598 0H26.7562C31.6426 0 34.0858 -2.10259e-07 35.9521 0.957291C37.5938 1.79936 38.9285 3.14301 39.765 4.79567C40.716 6.67449 40.716 9.13404 40.716 14.0531V26.9351C40.716 31.8541 40.716 34.3137 39.765 36.1925C38.9285 37.8452 37.5938 39.1888 35.9521 40.031C34.0858 40.9883 31.6426 40.9883 26.7562 40.9883H13.9598C9.07338 40.9883 6.63021 40.9883 4.76387 40.031C3.12216 39.1888 1.78743 37.8452 0.950951 36.1925C0 34.3137 0 31.8541 0 26.9351V14.0531Z" fill="var(--fill-0, white)" fill-opacity="0.4"/>
</svg>
