<svg preserveAspectRatio="none" width="100%" height="100%" overflow="visible" style="display: block;" viewBox="0 0 6.13223 5.29134" fill="none" xmlns="http://www.w3.org/2000/svg">
<path id="Vector" d="M5.75571 2.27426H3.53869V0.371408C3.53869 0.166325 3.3701 0 3.16217 0C2.95425 0 2.78565 0.166325 2.78565 0.371408V2.27426H0.376519C0.168593 2.27426 0 2.44054 0 2.64567C0 2.8508 0.168593 3.01708 0.376519 3.01708H2.78565V4.91993C2.78565 5.12501 2.95425 5.29134 3.16217 5.29134C3.3701 5.29134 3.53869 5.12501 3.53869 4.91993V3.01708H5.75571C5.96364 3.01708 6.13223 2.8508 6.13223 2.64567C6.13223 2.44054 5.96364 2.27426 5.75571 2.27426Z" fill="var(--fill-0, #FFEC4F)"/>
</svg>
