<svg width="34" height="36" viewBox="0 0 34 36" fill="none" xmlns="http://www.w3.org/2000/svg">
<g clip-path="url(#clip0_13269_54587)">
<path d="M7.18109 5.45394C7.98116 2.44181 11.0502 0.654276 14.0361 1.46137L28.4532 5.35838C31.439 6.16549 33.2109 9.26158 32.4106 12.2737L28.5478 26.8175C27.7477 29.8295 24.6786 31.6171 21.6928 30.81L7.27582 26.9131C4.28997 26.106 2.51803 23.0099 3.31808 19.9978L7.18109 5.45394Z" fill="#A8CFFF"/>
<path d="M14.9321 5.74422H13.5099V4.52099C13.5099 4.38912 13.4017 4.28223 13.2683 4.28223C13.1349 4.28223 13.0268 4.38912 13.0268 4.52099V5.74422H11.4813C11.3479 5.74422 11.2397 5.85115 11.2397 5.98301C11.2397 6.11488 11.3479 6.22178 11.4813 6.22178H13.0268V7.44501C13.0268 7.57688 13.1349 7.6838 13.2683 7.6838C13.4017 7.6838 13.5099 7.57688 13.5099 7.44501V6.22178H14.9321C15.0655 6.22178 15.1736 6.11488 15.1736 5.98301C15.1736 5.85115 15.0655 5.74422 14.9321 5.74422Z" fill="#FFEC4F"/>
<path d="M32.0726 12.2638H30.6505V11.0405C30.6505 10.9087 30.5423 10.8018 30.4089 10.8018C30.2757 10.8018 30.1675 10.9087 30.1675 11.0405V12.2638H28.622C28.4886 12.2638 28.3804 12.3707 28.3804 12.5025C28.3804 12.6344 28.4886 12.7413 28.622 12.7413H30.1675V13.9645C30.1675 14.0964 30.2757 14.2033 30.4089 14.2033C30.5423 14.2033 30.6505 14.0964 30.6505 13.9645V12.7413H32.0726C32.2061 12.7413 32.3143 12.6344 32.3143 12.5025C32.3143 12.3707 32.2061 12.2638 32.0726 12.2638Z" fill="#FFEC4F"/>
<path d="M0.140625 16.7001C0.140625 13.5379 0.140625 11.9568 0.750669 10.749C1.28728 9.68655 2.14352 8.82278 3.19669 8.28145C4.39397 7.66602 5.96128 7.66602 9.09594 7.66602H17.305C20.4396 7.66602 22.007 7.66602 23.2043 8.28145C24.2574 8.82278 25.1137 9.68655 25.6503 10.749C26.2603 11.9568 26.2603 13.5379 26.2603 16.7001V24.9814C26.2603 28.1437 26.2603 29.7247 25.6503 30.9325C25.1137 31.995 24.2574 32.859 23.2043 33.4001C22.007 34.0155 20.4396 34.0155 17.305 34.0155H9.09594C5.96128 34.0155 4.39397 34.0155 3.19669 33.4001C2.14352 32.859 1.28728 31.995 0.750669 30.9325C0.140625 29.7247 0.140625 28.1437 0.140625 24.9814V16.7001Z" fill="white" fill-opacity="0.4"/>
<path d="M9.09601 7.90137H17.3052C18.8763 7.90137 20.0408 7.90154 20.9624 7.97751C21.8812 8.05322 22.5382 8.20306 23.0984 8.491C24.1077 9.00977 24.9284 9.83771 25.4427 10.8559C25.7281 11.4211 25.8766 12.084 25.9517 13.0109C26.027 13.9406 26.0271 15.1152 26.0271 16.7001V24.9815C26.0271 26.5665 26.027 27.7412 25.9517 28.6711C25.8766 29.5977 25.7281 30.2605 25.4427 30.8257C24.9284 31.8439 24.1077 32.6719 23.0984 33.1907C22.5382 33.4787 21.8812 33.6283 20.9624 33.704C20.0408 33.78 18.8763 33.7803 17.3052 33.7803H9.09601C7.5249 33.7803 6.36061 33.78 5.43902 33.704C4.52015 33.6283 3.86302 33.4787 3.30275 33.1907C2.29348 32.6719 1.47276 31.8439 0.958509 30.8257C0.673089 30.2605 0.524559 29.5977 0.449484 28.6711C0.374184 27.7412 0.374023 26.5665 0.374023 24.9815V16.7001C0.374023 15.1152 0.374192 13.9406 0.449484 13.0109C0.524559 12.084 0.673055 11.4211 0.958509 10.8559C1.47276 9.83771 2.29348 9.00977 3.30275 8.491C3.86302 8.20303 4.52015 8.05322 5.43902 7.97751C6.36061 7.90154 7.52493 7.90137 9.09601 7.90137Z" stroke="white" stroke-opacity="0.6" stroke-width="1.65992"/>
<path d="M5.65914 22.752H4.2369V21.5288C4.2369 21.3969 4.12875 21.29 3.99536 21.29C3.86197 21.29 3.75382 21.3969 3.75382 21.5288V22.752H2.20833C2.07494 22.752 1.9668 22.859 1.9668 22.9908C1.9668 23.1227 2.07494 23.2296 2.20833 23.2296H3.75382V24.4528C3.75382 24.5847 3.86197 24.6916 3.99536 24.6916C4.12875 24.6916 4.2369 24.5847 4.2369 24.4528V23.2296H5.65914C5.79253 23.2296 5.90068 23.1227 5.90068 22.9908C5.90068 22.859 5.79253 22.752 5.65914 22.752Z" fill="#FFEC4F"/>
<mask id="mask0_13269_54587" style="mask-type:luminance" maskUnits="userSpaceOnUse" x="3" y="8" width="28" height="28">
<path d="M30.3473 8.53418H3.37207V35.7468H30.3473V8.53418Z" fill="white"/>
</mask>
<g mask="url(#mask0_13269_54587)">
<path d="M22.0127 16.5391C21.8331 16.5537 21.6552 16.5478 21.4808 16.5238C20.0994 16.3355 18.9449 14.9966 18.7925 13.2888C18.6518 11.7059 19.4157 10.2989 20.5866 9.77987C20.8383 9.66844 21.1081 9.59808 21.3924 9.57521C22.9999 9.44733 24.4411 10.9024 24.6125 12.8255C24.7835 14.7485 23.6196 16.4112 22.0127 16.5391Z" fill="#FFE262"/>
<path d="M21.4808 16.5232C20.0994 16.335 18.9449 14.996 18.7925 13.2882C18.6518 11.7053 19.4157 10.2983 20.5866 9.7793C21.9685 9.96814 23.1225 11.3065 23.2748 13.0143C23.4155 14.5972 22.6516 16.0042 21.4808 16.5232Z" fill="#F6D14F"/>
<path d="M28.7403 30.0047C28.6417 30.0447 28.5417 30.077 28.4399 30.1034C27.015 30.4704 25.3528 29.5274 24.6075 27.8688C23.9826 26.4777 24.1884 24.9963 25.0197 24.133C25.2499 23.8937 25.5284 23.7019 25.8499 23.5729C27.3341 22.9764 29.1846 23.933 29.9829 25.7088C30.7809 27.4847 30.2245 29.4083 28.7403 30.0047Z" fill="#FFE262"/>
<path d="M28.4399 30.104C27.015 30.4711 25.3528 29.528 24.6075 27.8694C23.9826 26.4783 24.1884 24.9968 25.0197 24.1335C26.4446 23.7664 28.1067 24.71 28.8522 26.368C29.4771 27.7592 29.2711 29.2406 28.4399 30.104Z" fill="#F6D14F"/>
<path d="M20.3987 13.5342C20.3987 13.5342 19.0534 21.7122 26.7152 26.0183L16.0166 29.5312C16.0166 29.5312 8.93203 23.8176 9.98701 13.8116L20.3987 13.5342Z" fill="#FCF4F6"/>
<path d="M8.92755 11.0957L21.481 11.489C21.481 11.489 23.4834 12.56 21.7313 14.7267L8.38184 14.908L8.92755 11.0957Z" fill="#0027A8"/>
<path d="M7.65497 17.7593C7.22767 17.7933 6.80908 17.7429 6.41142 17.6197C4.82955 17.13 3.57554 15.492 3.39416 13.4587C3.21278 11.4201 4.16506 9.60257 5.64462 8.87358C6.01145 8.69234 6.41142 8.57799 6.83465 8.54457C8.96069 8.37505 10.8687 10.3005 11.0949 12.8452C11.3216 15.3899 9.78158 17.5898 7.65497 17.7593Z" fill="#F6D14F"/>
<path d="M6.41142 17.6202C4.82955 17.1305 3.57554 15.4924 3.39416 13.4591C3.21278 11.4205 4.16506 9.60301 5.64462 8.87402C7.22649 9.36314 8.48109 11.0012 8.66247 13.0351C8.84385 15.0737 7.89157 16.8912 6.41142 17.6202Z" fill="#FFE262"/>
<path d="M14.5117 28.7016L26.5663 25.3652C26.5663 25.3652 28.8223 25.7907 27.8742 28.3666L15.2534 32.4845L14.5117 28.7016Z" fill="#0027A8"/>
<path d="M15.7639 35.5029C15.3459 35.6713 14.9064 35.7492 14.4628 35.7461C12.7402 35.7367 10.952 34.5076 10.0787 32.5645C9.19449 30.5975 9.51831 28.4985 10.7438 27.3267C11.0403 27.044 11.3897 26.8153 11.7874 26.6552C13.8291 25.8347 16.3743 27.1502 17.4725 29.5935C18.5707 32.0361 17.8056 34.6822 15.7639 35.5029Z" fill="#F6D14F"/>
<path d="M14.4628 35.7456C12.7402 35.7362 10.952 34.5071 10.0787 32.5639C9.19449 30.597 9.51831 28.4979 10.7438 27.3262C12.467 27.3356 14.2558 28.5648 15.129 30.5077C16.0127 32.4755 15.6889 34.5746 14.4628 35.7456Z" fill="#FFE262"/>
<path d="M18.9794 17.4621C18.9769 17.3974 18.9246 17.3484 18.8586 17.3496C16.0079 17.4646 12.1691 17.7347 12.1306 17.7374C12.0665 17.7419 12.0182 17.798 12.0228 17.8626C12.0271 17.9245 12.0781 17.9717 12.1386 17.9717C12.1414 17.9717 12.1441 17.9716 12.1469 17.9714C12.1853 17.9687 16.0208 17.6989 18.8679 17.584C18.9321 17.5814 18.9821 17.5269 18.9794 17.4621Z" fill="#0027A8"/>
<path d="M19.6142 19.9426C19.6116 19.8779 19.5586 19.8284 19.4934 19.8301C16.6426 19.9452 12.8038 20.2152 12.7654 20.2179C12.7013 20.2224 12.653 20.2785 12.6575 20.3431C12.6618 20.405 12.7129 20.4522 12.7734 20.4522C12.7761 20.4522 12.7789 20.4521 12.7816 20.4519C12.8201 20.4492 16.6555 20.1794 19.5028 20.0645C19.5668 20.0619 19.6168 20.0073 19.6142 19.9426Z" fill="#0027A8"/>
<path d="M20.7651 22.4241C20.7625 22.3594 20.7112 22.3093 20.6443 22.3116C17.7935 22.4266 13.9547 22.6967 13.9162 22.6994C13.8522 22.7039 13.8039 22.76 13.8084 22.8246C13.8127 22.8865 13.8637 22.9337 13.9243 22.9337C13.927 22.9337 13.9297 22.9336 13.9325 22.9334C13.971 22.9307 17.8064 22.6608 20.6536 22.5459C20.7177 22.5434 20.7677 22.4888 20.7651 22.4241Z" fill="#0027A8"/>
<path d="M22.315 24.6237C22.3074 24.5594 22.2501 24.5137 22.1856 24.5213C19.3532 24.8665 15.5481 25.4461 15.5101 25.4519C15.4465 25.4615 15.4029 25.5214 15.4125 25.5853C15.4211 25.6434 15.4708 25.6851 15.5273 25.6851C15.5331 25.6851 15.539 25.6847 15.5448 25.6838C15.5829 25.678 19.3847 25.0989 22.2136 24.7542C22.2774 24.7465 22.3228 24.688 22.315 24.6237Z" fill="#0027A8"/>
</g>
<mask id="mask1_13269_54587" style="mask-type:luminance" maskUnits="userSpaceOnUse" x="18" y="13" width="13" height="14">
<path d="M28.3071 13.3528L18.2646 16.0674L20.9555 26.1982L30.9979 23.4837L28.3071 13.3528Z" fill="white"/>
</mask>
<g mask="url(#mask1_13269_54587)">
<path d="M29.2688 17.8267C29.1674 18.0152 28.9876 18.1501 28.7501 18.2328C28.0684 18.4699 26.9121 18.2744 25.7708 17.6686C24.5191 17.004 23.6716 16.0504 23.6109 15.325C23.5971 15.1586 23.6245 15.0045 23.6979 14.8684C24.0914 14.1388 25.6577 14.2094 27.196 15.0264C28.7344 15.8431 29.6625 17.0969 29.2688 17.8267Z" fill="#0129AA"/>
<path d="M28.7499 18.2333C28.0684 18.4704 26.912 18.275 25.7708 17.6692C24.5191 17.0045 23.6715 16.0509 23.6108 15.3255C24.2927 15.0883 25.449 15.2838 26.59 15.8897C27.8417 16.5543 28.6892 17.5079 28.7499 18.2333Z" fill="#0E2287"/>
<path d="M25.0829 23.6135C25.0829 23.6135 25.918 21.9127 24.8086 20.5492C24.8086 20.5492 24.6312 19.9533 25.2324 19.6988C25.2324 19.6988 27.0998 19.7626 27.7983 17.9504C27.7983 17.9504 27.2305 15.725 24.2627 16.0213C24.2627 16.0213 22.9344 17.5248 24.2414 19.1822C24.2414 19.1822 24.2372 19.5932 23.8121 19.944C23.8121 19.944 22.1351 19.7464 21.2017 21.5237L25.0829 23.6135Z" fill="#BAEDFE"/>
<path d="M24.152 16.8398C24.152 16.8398 23.4766 18.454 24.6953 19.205C25.3809 19.6274 26.0682 19.369 26.5384 19.0621C26.5384 19.0621 26.3969 18.1354 25.5337 17.4956C24.6705 16.8557 24.152 16.8398 24.152 16.8398Z" fill="#E0A200"/>
<path d="M24.8471 23.3114C24.8471 23.3114 25.1077 22.5509 24.9814 21.8496C24.9814 21.8496 24.2992 20.6393 22.8179 20.4707C22.8179 20.4707 22.247 20.6784 21.8669 21.4661C21.4868 22.2538 24.8471 23.3114 24.8471 23.3114Z" fill="#E0A200"/>
<path d="M28.2446 17.746C28.2446 17.746 27.474 20.5212 25.145 23.8923L25.2677 24.3542C25.2677 24.3542 27.5018 22.4164 28.8369 17.8697C28.8369 17.8697 28.6899 17.1745 28.2446 17.746Z" fill="#0E2287"/>
<path d="M24.1721 15.706C24.1721 15.706 22.4128 17.4479 20.8412 21.6192L20.3833 21.7429C20.3833 21.7429 20.7606 18.647 23.7976 15.2236C23.7976 15.2236 24.4401 15.0313 24.1721 15.706Z" fill="#0E2287"/>
<path d="M25.5648 24.6831C25.4646 24.8691 25.2879 25.003 25.0553 25.086C24.3747 25.3282 23.2129 25.1337 22.0667 24.5251C20.8235 23.8652 19.979 22.9197 19.9081 22.1961C19.8914 22.0241 19.9182 21.8648 19.9937 21.7248C20.3873 20.9952 21.9534 21.0659 23.4919 21.8828C25.0304 22.6997 25.9584 23.9533 25.5648 24.6831Z" fill="#0E2287"/>
<path d="M25.0554 25.0859C24.3749 25.3282 23.213 25.1337 22.0669 24.525C20.8236 23.8651 19.9791 22.9196 19.9082 22.196C20.5887 21.9538 21.7505 22.148 22.8967 22.7567C24.14 23.4168 24.9848 24.3625 25.0554 25.0859Z" fill="#0129AA"/>
</g>
</g>
<defs>
<clipPath id="clip0_13269_54587">
<rect width="34" height="36" fill="white"/>
</clipPath>
</defs>
</svg>
