<svg preserveAspectRatio="none" width="100%" height="100%" overflow="visible" style="display: block;" viewBox="0 0 1132.79 383.793" fill="none" xmlns="http://www.w3.org/2000/svg">
<g id="Pattern" opacity="0.4">
<path id="Vector" d="M0.00163126 382.896C377.209 382.896 754.417 382.896 1131.62 382.896" stroke="var(--stroke-0, #E2E8F0)" stroke-width="1.79421" stroke-miterlimit="10"/>
<path id="Vector_2" d="M0.00163126 372.185C191.01 372.264 381.924 370.348 572.885 368.181C655.51 367.238 738.7 367.547 821.316 369.535C924.734 372.019 1028.2 369.679 1131.59 372.185" stroke="var(--stroke-0, #E2E8F0)" stroke-width="1.79421" stroke-miterlimit="10"/>
<path id="Vector_3" d="M0.00163126 361.626C54.123 361.626 108.26 362.008 162.374 361.821C210.735 361.655 258.986 358.062 307.331 357.443C397.39 356.291 487.432 357.63 577.483 356.269C657.411 355.059 738.165 351.855 818.039 356.744C864.593 359.625 910.667 360.935 957.26 362.123C1015.41 363.607 1073.49 359.581 1131.62 361.626" stroke="var(--stroke-0, #E2E8F0)" stroke-width="1.79421" stroke-miterlimit="10"/>
<path id="Vector_4" d="M0.00163126 351.211C53.3451 351.211 106.83 352.032 160.158 351.146C210.271 350.311 260.094 344.457 310.168 342.952C400.4 340.237 489.923 347.992 580.06 346.61C659.376 345.415 737.568 335.708 816.97 344.392C863.382 349.469 908.357 353.443 955.107 354.603C1014.05 356.043 1072.69 349.037 1131.62 351.211" stroke="var(--stroke-0, #E2E8F0)" stroke-width="1.79421" stroke-miterlimit="10"/>
<path id="Vector_5" d="M0.00163126 341.004C52.3785 341.004 105.14 342.315 157.478 340.507C209.815 338.7 261.406 330.383 313.587 327.697C361.021 325.256 407.787 325.911 454.969 331.225C497.255 335.992 538.332 339.434 580.964 338.916C618.331 338.455 653.341 333.256 690.244 328.41C732.476 322.858 775.957 325.45 817.795 332.522C863.846 340.313 907.28 347.766 954.305 348.615C1013.62 349.695 1072.27 339.139 1131.62 341.004" stroke="var(--stroke-0, #E2E8F0)" stroke-width="1.79421" stroke-miterlimit="10"/>
<path id="Vector_6" d="M0.00163126 330.935C51.2468 330.935 103.27 332.699 154.429 329.876C209.092 326.866 262.829 315.964 317.375 311.874C364.208 308.317 411.353 310.755 457.452 319.118C498.607 326.478 538.395 333.052 580.461 332.749C619.416 332.469 654.661 323.432 692.476 316.123C735.399 307.828 777.874 310.974 820.145 321.034C865.449 331.835 907.272 343.471 954.619 343.781C1014.04 344.177 1072.1 329.725 1131.62 330.942" stroke="var(--stroke-0, #E2E8F0)" stroke-width="1.79421" stroke-miterlimit="10"/>
<path id="Vector_7" d="M0.00163126 321.025C50.0366 320.982 101.298 323.186 151.16 319.333C208.401 314.948 264.322 301.418 321.351 295.765C369.209 291.027 413.437 295.434 459.598 307.337C499.118 317.533 537.397 327.744 578.85 327.765C619.84 327.765 656.303 314.192 695.203 304.284C739.517 293 780.381 296.284 823.681 309.915C867.752 323.783 908.215 340.158 955.822 339.798C1015.15 339.308 1072.13 320.694 1131.62 321.025" stroke="var(--stroke-0, #E2E8F0)" stroke-width="1.79421" stroke-miterlimit="10"/>
<path id="Vector_8" d="M0.00163126 311.28C48.7714 311.215 99.2622 313.663 147.741 308.925C207.607 303.078 265.619 286.934 325.272 279.647C373.798 273.721 415.92 280.057 461.334 295.913C498.803 308.997 535.605 323.175 576.382 323.622C619.478 324.097 658.331 305.454 698.189 292.903C744.216 278.408 783.516 281.49 827.996 299.154C870.353 315.975 909.85 337.57 957.661 336.36C1016.78 334.862 1072.25 311.971 1131.61 311.28" stroke="var(--stroke-0, #E2E8F0)" stroke-width="1.79421" stroke-miterlimit="10"/>
<path id="Vector_9" d="M0.00163126 301.687C47.5219 301.601 97.2268 304.207 144.393 298.684C206.821 291.376 266.931 272.697 329.068 263.782C378.576 256.675 418.309 264.812 462.764 284.844C497.923 300.686 533.239 318.983 573.451 319.948C618.653 321.021 660.625 296.805 701.403 281.921C722.762 274.166 745.277 266.9 768.562 268.571C791.351 270.213 812.931 279.005 832.86 288.733C873.032 308.297 912.168 335.228 959.971 333.169C1018.83 330.627 1072.45 303.473 1131.63 301.709" stroke="var(--stroke-0, #E2E8F0)" stroke-width="1.79421" stroke-miterlimit="10"/>
<path id="Vector_10" d="M0.0404384 292.261C46.4055 292.153 95.301 294.824 141.179 288.661C205.988 279.977 267.976 258.886 332.415 248.43C383.055 240.207 420.493 249.993 463.746 274.151C496.54 292.47 530.378 314.857 570.229 316.376C617.38 318.169 662.959 288.257 704.515 271.328C726.283 262.457 750.29 253.103 774.605 255.163C797.394 257.093 818.746 267.634 837.802 278.565C875.798 300.369 914.533 332.736 962.454 329.849C1021.06 326.306 1072.61 295.026 1131.64 292.261" stroke="var(--stroke-0, #E2E8F0)" stroke-width="1.79421" stroke-miterlimit="10"/>
<path id="Vector_11" d="M0.0490932 283.002C45.3061 282.872 93.4787 285.544 138.186 278.926C205.109 269.011 268.762 245.695 335.198 233.842C360.494 229.335 384.471 226.728 409.248 234.634C429.437 241.079 447.197 252.391 464.329 263.826C494.977 284.269 527.33 310.487 567.086 312.539C615.966 315.067 665.207 279.733 707.439 261.076C729.584 251.29 755.069 239.956 780.311 242.354C803.202 244.514 824.271 256.661 842.51 268.658C878.487 292.305 916.758 329.735 964.938 326.113C1023.33 321.713 1072.75 286.559 1131.67 282.966" stroke="var(--stroke-0, #E2E8F0)" stroke-width="1.79421" stroke-miterlimit="10"/>
<path id="Vector_12" d="M0.0566313 273.89C44.3628 273.753 91.8831 276.41 135.561 269.49C204.181 258.617 269.045 233.299 337.154 220.33C362.537 215.499 386.443 212.503 411.095 221.475C431.095 228.799 448.14 241.364 464.438 253.922C493.287 276.122 524.289 305.631 564.241 308.115C589.773 309.706 615.447 297.501 637.498 287.168C661.961 275.704 685.482 262.642 709.938 251.164C732.413 240.622 759.132 227.69 785.222 230.39C808.279 232.773 829.017 246.16 846.605 259.049C880.93 284.252 918.478 325.915 967.122 321.696C1025.42 316.655 1072.76 278.001 1131.68 273.861" stroke="var(--stroke-0, #E2E8F0)" stroke-width="1.79421" stroke-miterlimit="10"/>
<path id="Vector_13" d="M0.0645881 264.951C43.577 264.814 90.5944 267.478 133.431 260.429C203.262 248.944 268.88 221.898 338.129 208.122C363.394 203.082 387.48 199.863 411.881 209.476C431.857 217.347 448.391 230.992 464.101 244.414C491.747 268.026 521.577 299.983 562.017 302.74C588.249 304.512 614.669 291.291 637.066 280.36C662.347 268.011 686.574 253.955 711.855 241.592C734.645 230.438 762.149 216.49 788.939 219.334C812.239 221.811 832.624 236.033 849.732 249.664C882.997 276.155 919.398 320.807 968.82 316.307C1027.11 311 1072.65 269.242 1131.69 264.98" stroke="var(--stroke-0, #E2E8F0)" stroke-width="1.79421" stroke-miterlimit="10"/>
<path id="Vector_14" d="M0.0805019 256.163C42.98 256.048 89.7066 258.763 131.914 251.771C202.334 240.106 268.133 211.641 337.917 197.492C362.836 192.451 387.37 189.168 411.425 198.845C431.566 206.946 447.873 221.326 463.291 235.317C490.497 260.045 519.448 293.283 560.736 295.962C587.55 297.705 614.041 284.347 636.752 272.92C662.567 259.958 687.242 245.182 713.05 232.206C736.13 220.599 763.753 206.428 791.092 209.25C814.668 211.684 834.707 226.165 851.603 240.379C884.608 268.138 919.272 313.921 969.849 309.463C1028.29 304.315 1072.46 259.987 1131.73 256.178" stroke="var(--stroke-0, #E2E8F0)" stroke-width="1.79421" stroke-miterlimit="10"/>
<path id="Vector_15" d="M0.0883191 247.52C42.8306 247.276 89.4079 250.329 131.435 243.2C201.376 231.312 266.334 201.997 335.567 187.517C360.416 182.325 384.934 179.214 408.973 188.777C429.405 196.921 446.034 211.473 461.68 225.637C489.389 250.725 518.646 284.388 560.477 287.528C587.479 289.551 613.813 276.359 636.626 264.752C662.48 251.589 687.109 236.525 712.955 223.355C736.146 211.531 763.627 197.554 791.171 200.579C814.904 203.185 834.825 217.695 851.752 232.068C884.891 260.215 918.895 305.393 969.873 301.195C1028.48 296.385 1072.19 250.847 1131.71 247.52" stroke="var(--stroke-0, #E2E8F0)" stroke-width="1.79421" stroke-miterlimit="10"/>
<path id="Vector_16" d="M0.0958572 239.077C43.0189 238.631 89.4547 242.483 131.631 234.858C200.33 222.437 263.827 192.64 331.795 177.648C356.942 172.096 380.816 169.209 405.201 178.836C426.002 187.038 443.22 201.439 459.44 215.481C488.069 240.294 518.56 274.296 560.39 278.581C587.227 281.332 613.655 268.104 636.272 256.503C661.812 243.405 686.071 228.327 711.603 215.214C734.747 203.326 762.228 189.457 789.733 193.05C813.394 196.139 833.607 210.858 850.769 225.072C884.082 252.651 919.068 296.979 969.433 292.903C1028.18 288.143 1072.03 242.347 1131.69 239.077" stroke="var(--stroke-0, #E2E8F0)" stroke-width="1.79421" stroke-miterlimit="10"/>
<path id="Vector_17" d="M0.111492 230.775C43.2782 230.242 89.5882 235.168 132.024 227.096C199.324 214.293 261.163 184.107 327.7 168.769C353.06 162.908 376.376 160.294 401.036 169.799C422.159 177.943 440.069 191.97 456.894 205.904C486.481 230.386 518.379 264.266 560.17 269.587C586.763 272.979 612.987 260.025 635.399 248.475C660.507 235.513 684.256 220.528 709.348 207.574C732.42 195.664 759.642 182.192 787.021 186.296C810.707 189.853 831.28 204.636 848.828 218.699C882.58 245.702 918.714 288.921 968.694 284.903C1027.7 280.165 1071.8 234.073 1131.72 230.818" stroke="var(--stroke-0, #E2E8F0)" stroke-width="1.79421" stroke-miterlimit="10"/>
<path id="Vector_18" d="M0.127964 222.628C43.5933 222.117 89.8798 228.346 132.614 219.863C198.374 206.823 258.413 176.328 323.387 160.724C348.848 154.61 371.725 152.313 396.589 161.544C418.09 169.523 436.667 183.147 454.144 196.828C484.965 220.871 517.979 254.261 559.888 260.562C586.167 264.508 611.927 252.116 634.119 240.645C658.677 227.943 681.821 213.087 706.363 200.371C729.349 188.454 756.044 175.651 783.258 180.209C807.053 184.205 828.051 198.931 846.126 212.799C880.554 239.205 917.976 281.099 967.689 277.102C1027.06 272.328 1071.49 225.926 1131.77 222.65" stroke="var(--stroke-0, #E2E8F0)" stroke-width="1.79421" stroke-miterlimit="10"/>
<path id="Vector_19" d="M0.134804 214.642C43.9537 214.239 90.2245 221.965 133.344 213.116C197.454 199.96 255.583 169.191 318.883 153.501C344.329 147.178 366.89 145.213 391.88 154.041C413.766 161.774 432.996 174.923 451.189 188.187C483.408 211.683 517.428 244.273 559.494 251.481C610.26 260.187 661.56 214.88 702.699 193.522C725.599 181.627 751.571 169.709 778.55 174.7C802.534 179.142 823.972 193.724 842.667 207.384C877.967 233.17 916.788 273.566 966.375 269.548C1026.19 264.709 1071.04 217.969 1131.76 214.642" stroke="var(--stroke-0, #E2E8F0)" stroke-width="1.79421" stroke-miterlimit="10"/>
<path id="Vector_20" d="M0.151276 206.823C44.3553 206.6 90.6339 215.983 134.201 206.823C196.59 193.66 252.715 162.748 314.255 147.007C339.614 140.526 361.956 138.913 387.017 147.23C409.304 154.64 429.201 167.205 448.109 180.051C481.727 202.877 516.76 234.381 559.039 242.482C609.035 252.044 658.127 208.048 698.504 187.036C720.83 175.435 746.857 163.741 773.097 169.718C797.458 175.263 818.919 188.706 838.676 202.388C874.99 227.518 915.304 266.28 964.891 262.219C1025.21 257.286 1070.55 210.193 1131.77 206.773" stroke="var(--stroke-0, #E2E8F0)" stroke-width="1.79421" stroke-miterlimit="10"/>
<path id="Vector_21" d="M0.16705 199.155C44.7875 199.155 91.1133 210.338 135.168 200.84C195.781 187.771 249.847 156.728 309.571 141.074C413.303 113.862 467.417 214.32 558.536 233.546C607.652 243.922 654.26 201.51 693.906 180.923C716.13 169.402 741.152 158.91 767.061 165.225C791.729 171.238 813.693 184.387 834.243 197.809C871.689 222.291 913.567 259.289 963.256 255.163C1024.14 250.122 1070.01 202.662 1131.8 199.155" stroke="var(--stroke-0, #E2E8F0)" stroke-width="1.79421" stroke-miterlimit="10"/>
<path id="Vector_22" d="M0.182405 191.649C45.2351 191.952 91.6395 204.971 136.221 195.192C195.026 182.296 247.025 151.181 304.887 135.664C406.474 108.43 468.344 204.071 557.994 224.672C606.261 235.776 650.072 195.243 688.995 175.052C711.124 163.574 735.053 154.465 760.593 161.068C785.591 167.549 808.114 180.366 829.489 193.507C868.137 217.27 911.61 252.489 961.511 248.269C1022.99 243.077 1069.43 195.271 1131.82 191.649" stroke="var(--stroke-0, #E2E8F0)" stroke-width="1.79421" stroke-miterlimit="10"/>
<path id="Vector_23" d="M0.19818 184.305C45.6988 184.917 92.1975 199.837 137.337 189.813C194.342 177.154 244.212 146.004 300.282 130.695C399.716 103.541 469.24 193.954 557.436 215.93C604.838 227.74 645.671 189.201 683.91 169.406C705.961 157.993 728.704 150.346 753.851 157.165C779.195 164.071 802.298 176.607 824.522 189.424C864.412 212.467 909.488 245.85 959.641 241.536C1021.72 236.186 1068.78 188.02 1131.79 184.276" stroke="var(--stroke-0, #E2E8F0)" stroke-width="1.79421" stroke-miterlimit="10"/>
<path id="Vector_24" d="M0.214652 177.12C46.1554 178.049 92.7877 194.877 138.524 184.645C193.769 172.274 241.58 141.109 295.843 126.06C393.163 99.0641 470.121 184.047 556.871 207.342C603.417 219.842 641.184 183.356 678.772 163.943C700.728 152.602 722.363 146.459 747.093 153.523C772.791 160.868 796.5 173.088 819.556 185.588C860.696 207.911 907.359 239.45 957.827 235.029C1020.56 229.527 1068.2 181.023 1131.84 177.12" stroke="var(--stroke-0, #E2E8F0)" stroke-width="1.79421" stroke-miterlimit="10"/>
<path id="Vector_25" d="M0.230426 170.098C46.5955 171.336 93.385 190.029 139.648 179.624C193.196 167.577 238.987 136.42 291.521 121.665C386.915 94.8786 471.009 174.332 556.352 198.929C602.049 212.107 636.744 177.673 673.719 158.605C695.581 147.336 716.154 142.699 740.414 149.964C766.465 157.756 790.771 169.694 814.653 181.849C857.002 203.408 905.222 233.169 956.035 228.654C1019.4 223.002 1067.63 174.101 1131.88 170.112" stroke="var(--stroke-0, #E2E8F0)" stroke-width="1.79421" stroke-miterlimit="10"/>
<path id="Vector_26" d="M0.245781 163.229C47.0745 164.763 93.974 185.249 140.803 174.7C192.739 162.999 236.598 131.862 287.497 117.425C381.06 90.8829 471.881 164.82 555.794 190.721C600.729 204.59 632.32 172.064 668.783 153.378C690.575 142.217 710.072 138.977 733.922 146.451C760.311 154.689 785.207 166.39 809.867 178.192C853.379 199.009 903.084 227.02 954.25 222.39C1018.21 216.594 1067 167.341 1131.85 163.229" stroke="var(--stroke-0, #E2E8F0)" stroke-width="1.79421" stroke-miterlimit="10"/>
<path id="Vector_27" d="M0.261136 156.526C47.5299 158.311 94.563 180.483 141.918 169.825C192.37 158.477 234.413 127.341 283.788 113.242C331.685 99.5604 382.64 115.006 427.378 131.51C470.521 147.431 511.534 168.313 555.322 182.751C599.691 197.383 627.989 166.391 664.178 148.187C712.232 124.029 761.45 154.668 805.434 174.535C850 194.639 901.103 220.98 952.608 216.249C1017.13 210.33 1066.46 160.731 1131.88 156.518" stroke="var(--stroke-0, #E2E8F0)" stroke-width="1.79421" stroke-miterlimit="10"/>
<path id="Vector_28" d="M0.27705 149.974C47.9859 151.969 95.0268 175.674 142.987 164.937C192.095 153.934 232.464 122.82 280.511 109.031C327.968 95.3923 380.266 110.204 425.217 125.319C469.232 140.123 511.126 159.673 554.906 175.054C598.685 190.435 624.257 160.962 659.981 143.018C706.944 119.436 758.213 152.379 801.434 170.849C846.935 190.291 899.335 215.033 951.123 210.237C1016.15 204.21 1065.97 154.28 1131.87 149.974" stroke="var(--stroke-0, #E2E8F0)" stroke-width="1.79421" stroke-miterlimit="10"/>
<path id="Vector_29" d="M0.292824 143.587C48.4496 145.747 95.4513 170.777 143.97 159.975C191.906 149.311 230.79 118.211 277.564 104.688C324.66 91.1147 378.153 105.322 423.307 119.183C468.101 132.944 510.835 151.32 554.544 167.644C575.165 175.342 590.277 175.659 610.214 165.729C626.418 157.657 640.123 145.934 656.304 137.804C677.891 126.946 695.085 127.248 717.694 135.32C744.861 145.034 771.328 156.202 797.984 167.054C844.247 185.833 897.787 209.135 949.811 204.296C1015.29 198.204 1065.52 147.943 1131.89 143.587" stroke="var(--stroke-0, #E2E8F0)" stroke-width="1.79421" stroke-miterlimit="10"/>
<path id="Vector_30" d="M0.30818 137.349C48.9129 139.509 95.7731 165.734 144.857 154.897C191.843 144.521 229.399 113.306 275.23 100.128C322.082 86.6557 376.557 100.272 421.893 113.09C467.228 125.907 510.756 143.333 554.324 160.615C574.457 168.6 589.176 169.731 608.94 159.851C624.61 152.017 637.687 140.453 653.317 132.561C674.787 121.716 691.714 122.868 713.93 131.207C741.23 141.453 768.106 152.6 795.265 163.149C842.11 181.338 896.695 203.344 948.796 198.491C1014.63 192.363 1065.2 141.799 1131.9 137.414" stroke="var(--stroke-0, #E2E8F0)" stroke-width="1.79421" stroke-miterlimit="10"/>
<path id="Vector_31" d="M0.324093 131.288C49.3846 133.391 95.9776 160.523 145.612 149.657C191.898 139.511 228.283 108.058 273.477 95.2697C320.267 82.0131 375.331 95.0105 420.95 106.913C466.938 118.903 510.843 135.601 554.23 153.833C573.954 162.114 588.508 163.857 608.123 153.977C623.369 146.309 635.919 134.816 651.117 127.075C672.484 116.195 689.396 117.959 711.274 126.615C738.613 137.416 765.804 148.591 793.379 158.917C840.53 176.581 896.027 197.448 948.089 192.631C1014.19 186.51 1065 135.659 1131.98 131.288" stroke="var(--stroke-0, #E2E8F0)" stroke-width="1.79421" stroke-miterlimit="10"/>
<path id="Vector_32" d="M0.340426 125.373C49.8489 127.281 96.0411 155.069 146.225 144.174C192.033 134.23 227.632 102.64 272.283 90.0031C318.924 76.8113 374.711 89.5279 420.447 100.689C466.907 112.03 511.009 128.275 554.191 147.494C573.594 156.135 588.226 158.223 607.739 148.279C622.67 140.668 634.827 129.168 649.735 121.485C671.023 110.511 688.17 112.585 709.789 121.636C737.074 133.056 764.468 144.311 792.35 154.464C839.643 171.681 895.784 191.613 947.634 186.868C1013.89 180.812 1064.83 129.686 1131.96 125.373" stroke="var(--stroke-0, #E2E8F0)" stroke-width="1.79421" stroke-miterlimit="10"/>
<path id="Vector_33" d="M0.363738 119.614C50.1237 121.328 95.9937 149.418 146.484 138.423C192.134 128.486 227.521 96.9247 272.032 84.3594C318.625 71.2108 374.664 84.1865 420.416 95.1101C467.04 106.242 511.001 122.365 554.238 141.67C573.57 150.311 588.407 152.111 607.786 142.232C622.615 134.671 634.693 123.272 649.522 115.69C670.74 104.846 688.202 106.862 709.616 116.172C736.783 127.982 764.209 139.323 792.209 149.375C839.273 166.275 896.145 185.984 947.595 181.058C1013.76 174.736 1065.02 124.475 1131.99 119.636" stroke="var(--stroke-0, #E2E8F0)" stroke-width="1.79421" stroke-miterlimit="10"/>
<path id="Vector_34" d="M0.379093 113.948C50.2491 115.575 95.9855 143.853 146.594 132.728C192.173 122.704 227.741 91.4096 272.283 78.9235C318.876 65.8613 374.789 79.4059 420.47 90.4015C466.945 101.591 510.717 117.685 554.253 136.076C595.463 153.48 615.887 126.715 649.828 110.024C671.046 99.5896 688.618 101.491 709.836 110.837C736.885 122.754 764.264 134.067 792.256 144.004C839.045 160.609 896.656 180.411 947.736 175.068C1013.61 168.17 1065.51 119.953 1132.03 114.056" stroke="var(--stroke-0, #E2E8F0)" stroke-width="1.79421" stroke-miterlimit="10"/>
<path id="Vector_35" d="M0.395426 108.366C50.4147 109.935 96.0411 138.422 146.807 127.203C192.386 117.122 228.095 86.1585 272.661 73.7876C319.254 60.8262 375.002 74.8893 420.612 85.9208C466.907 97.118 510.514 113.14 554.301 130.602C595.165 146.904 616.32 120.614 650.285 104.679C671.503 94.6985 689.231 96.5419 710.261 105.903C737.184 117.885 764.484 129.111 792.468 138.875C839.069 155.142 897.253 174.735 947.909 169.032C1013.46 161.658 1065.99 115.538 1132.02 108.704" stroke="var(--stroke-0, #E2E8F0)" stroke-width="1.79421" stroke-miterlimit="10"/>
<path id="Vector_36" d="M0.410223 102.888C50.6024 104.415 96.1581 133.131 147.112 121.862C192.637 111.796 228.558 81.1852 273.155 68.9439C319.748 56.1986 375.315 70.6145 420.839 81.6533C466.914 92.8144 510.426 108.714 554.371 125.211C594.944 140.426 616.822 114.719 650.873 99.5255C672.146 90.0422 690.008 91.8855 710.88 101.239C737.654 113.243 764.9 124.339 792.837 133.873C839.32 149.751 897.858 168.862 948.168 162.863C1013.39 155.094 1066.53 111.14 1132.06 103.464" stroke="var(--stroke-0, #E2E8F0)" stroke-width="1.79421" stroke-miterlimit="10"/>
<path id="Vector_37" d="M0.426137 97.4982C50.8305 99.0104 96.2997 127.95 147.513 116.674C192.998 106.665 229.14 76.4 273.776 64.4036C320.353 51.8814 375.638 66.6214 421.146 77.6241C466.969 88.7133 510.348 104.447 554.473 119.95C594.74 134.1 617.388 109.07 651.596 94.6971C672.94 85.725 690.944 87.6332 711.682 96.9582C738.247 109.023 765.506 119.758 793.34 129.117C839.784 144.555 898.486 162.96 948.506 156.688C1013.31 148.602 1067.1 106.866 1132.05 98.4631" stroke="var(--stroke-0, #E2E8F0)" stroke-width="1.79421" stroke-miterlimit="10"/>
<path id="Vector_38" d="M0.450286 92.2183C51.0825 93.7304 96.536 122.922 148.001 111.66C193.447 101.73 229.832 71.8689 274.523 60.1173C321.084 47.876 376.133 62.8464 421.555 73.7987C467.135 84.7727 510.396 100.29 554.623 114.785C594.591 127.891 618.057 103.603 652.469 90.1012C673.915 81.6835 692.052 83.6998 712.673 92.9815C739.078 104.966 766.238 115.5 794.008 124.528C840.476 139.484 899.171 156.888 948.923 150.451C1013.31 142.119 1067.71 102.667 1132.1 93.608" stroke="var(--stroke-0, #E2E8F0)" stroke-width="1.79421" stroke-miterlimit="10"/>
<path id="Vector_39" d="M0.465223 87.046C51.3568 88.5654 96.8024 118.009 148.558 106.834C193.973 97.0263 230.617 67.5968 275.324 56.126C321.862 44.1871 376.62 59.3375 422.002 70.1962C467.244 80.9974 510.489 96.2702 554.764 109.736C594.449 121.811 618.779 98.3512 653.427 85.7643C674.991 77.9299 693.27 80.0973 713.804 89.3647C740.028 101.235 767.066 111.532 794.746 120.191C841.292 134.593 899.806 150.837 949.346 144.249C1013.28 135.752 1068.28 98.6248 1132.08 89.0118" stroke="var(--stroke-0, #E2E8F0)" stroke-width="1.79421" stroke-miterlimit="10"/>
<path id="Vector_40" d="M0.480578 81.9747C51.6551 83.5301 97.14 113.255 149.195 102.137C194.577 92.5022 231.489 63.5408 276.243 52.3796C322.749 40.7864 377.209 56.0448 422.489 66.7811C467.416 77.4383 510.614 92.3654 554.905 104.794C594.315 115.847 619.557 93.2727 654.464 81.6507C676.161 74.4499 694.582 76.783 715.053 85.9711C741.103 97.7005 768.029 107.723 795.626 115.962C842.321 129.809 900.505 144.679 949.865 137.975C1013.34 129.334 1068.9 94.6193 1132.1 84.5094" stroke="var(--stroke-0, #E2E8F0)" stroke-width="1.79421" stroke-miterlimit="10"/>
<path id="Vector_41" d="M0.496492 77.0265C51.9774 78.6251 97.4545 108.638 149.894 97.6711C195.246 88.1805 232.448 59.7087 277.249 48.8932C323.716 37.6816 377.838 52.9904 423.055 63.5899C467.668 74.0526 510.827 88.6053 555.078 99.9825C594.221 110.064 620.429 88.4109 655.611 77.7898C677.458 71.2011 696.02 73.7862 716.444 82.8303C742.312 94.3819 769.11 104.098 796.601 111.893C843.476 125.106 901.189 138.442 950.407 131.659C1013.41 123.018 1069.49 90.6864 1132.1 80.1589" stroke="var(--stroke-0, #E2E8F0)" stroke-width="1.79421" stroke-miterlimit="10"/>
<path id="Vector_42" d="M0.512824 72.1904C52.316 73.8466 97.8402 104.147 150.61 93.3318C195.985 84.0644 233.478 56.0823 278.334 45.6412C324.754 34.8401 378.498 50.1417 423.716 60.5828C467.999 70.8223 511.126 84.9573 555.33 95.276C594.206 104.356 621.436 83.7116 656.909 74.1418C678.913 68.2084 697.608 71.0455 718.016 80.0464C743.697 91.3952 770.36 100.772 797.733 108.079C844.79 120.615 901.921 132.309 951.028 125.447C1013.53 116.756 1070.12 86.9447 1132.14 76.0572" stroke="var(--stroke-0, #E2E8F0)" stroke-width="1.79421" stroke-miterlimit="10"/>
<path id="Vector_43" d="M0.52818 67.5041C52.6535 69.2107 98.2328 99.7995 151.466 89.164C196.77 80.1055 234.578 52.6706 279.481 42.6255C325.846 32.2492 379.221 47.5148 424.336 57.7471C468.297 67.7418 511.393 81.4088 555.503 90.6762C594.135 98.7986 622.441 79.155 658.189 70.6869C680.35 65.4231 699.195 68.5267 719.611 77.4628C745.097 88.5846 771.618 97.595 798.856 104.386C846.219 116.196 902.643 126.061 951.673 119.213C1013.69 110.572 1070.73 83.2666 1132.15 72.0694" stroke="var(--stroke-0, #E2E8F0)" stroke-width="1.79421" stroke-miterlimit="10"/>
<path id="Vector_44" d="M0.544931 62.8945C53.0475 64.7019 98.7132 95.5859 152.324 85.152C197.62 76.3455 235.757 49.4579 280.692 39.8305C327.018 29.915 379.992 45.0942 425.045 55.1537C468.675 64.8963 511.74 78.0449 555.731 86.261C594.136 93.4617 623.558 74.8766 659.574 67.539C681.9 62.9665 700.886 66.4013 721.333 75.215C746.626 86.0874 772.999 94.7079 800.091 100.958C847.745 111.989 903.383 119.96 952.349 113.105C1013.88 104.5 1071.33 79.8019 1132.17 68.3455" stroke="var(--stroke-0, #E2E8F0)" stroke-width="1.79421" stroke-miterlimit="10"/>
<path id="Vector_45" d="M0.559728 58.4391C53.4395 60.3401 99.1838 91.5194 153.242 81.3159C198.499 72.7686 236.943 46.4498 281.957 37.2617C328.219 27.8143 380.785 42.8855 425.767 52.7217C469.083 62.1907 512.092 74.7848 555.943 81.9496C594.151 88.1926 624.712 70.7308 661.003 64.4877C683.486 60.6209 702.606 64.3941 723.124 73.1286C748.219 83.7306 774.44 91.9348 801.371 97.6112C849.308 107.807 904.097 113.798 953.04 106.972C1014.09 98.4681 1071.9 76.3762 1132.18 64.6893" stroke="var(--stroke-0, #E2E8F0)" stroke-width="1.79421" stroke-miterlimit="10"/>
<path id="Vector_46" d="M0.575083 54.1171C53.8242 56.1189 99.6864 87.5934 154.161 77.6347C199.426 69.3611 238.192 43.6256 283.261 34.891C329.461 25.9405 381.61 40.8605 426.56 50.4663C469.57 59.6616 512.516 71.6509 556.225 77.7715C594.268 83.0929 625.993 66.7688 662.543 61.6779C685.191 58.5167 704.444 62.65 725.041 71.2549C749.941 81.5827 776.008 89.3633 802.77 94.4557C851.029 103.766 904.883 107.712 953.81 100.936C1014.32 92.5403 1072.47 73.1127 1132.2 61.2314" stroke="var(--stroke-0, #E2E8F0)" stroke-width="1.79421" stroke-miterlimit="10"/>
<path id="Vector_47" d="M0.591416 49.9361C54.2256 52.046 100.206 83.7797 155.129 74.1235C200.393 66.1378 239.482 40.9856 284.605 32.7263C330.742 24.3014 382.467 39.0342 427.362 48.3952C470.081 57.3025 512.949 68.6509 556.469 73.7346C594.379 78.1631 627.259 62.9983 664.044 59.0595C686.834 56.6184 706.237 61.1261 726.912 69.623C751.619 79.657 777.528 86.9922 804.106 91.4773C852.672 99.8518 905.575 101.717 954.502 94.9913C1014.57 86.7392 1072.95 69.9974 1132.16 57.9434" stroke="var(--stroke-0, #E2E8F0)" stroke-width="1.79421" stroke-miterlimit="10"/>
<path id="Vector_48" d="M0.606352 45.9005C54.6335 48.1183 100.747 80.1761 156.11 70.7719C201.367 63.0743 240.801 38.5269 285.98 30.7789C332.038 22.8581 383.33 37.4252 428.218 46.5269C470.654 55.1679 513.428 65.8178 556.767 69.8718C594.606 73.4146 628.61 59.4307 665.678 56.6512C688.633 54.9302 708.114 59.8339 728.986 68.2156C753.502 77.9507 779.254 84.8307 805.638 88.6946C916.443 105.465 1025.02 77.1734 1132.27 54.851" stroke="var(--stroke-0, #E2E8F0)" stroke-width="1.79421" stroke-miterlimit="10"/>
<path id="Vector_49" d="M0.622685 41.999C55.0506 44.3392 101.298 76.6778 157.117 67.5689C202.374 60.1809 242.145 36.2456 287.379 28.9512C333.359 21.5344 384.219 35.9216 429.013 44.7569C471.205 53.1026 513.853 63.0612 556.996 66.0639C594.827 68.721 629.899 55.9829 667.243 54.3267C690.331 53.3186 709.977 58.6471 730.967 66.9064C755.203 76.505 780.939 82.6257 807.069 86.01C915.052 100.001 1027.68 74.028 1132.25 51.8568" stroke="var(--stroke-0, #E2E8F0)" stroke-width="1.79421" stroke-miterlimit="10"/>
<path id="Vector_50" d="M0.638459 38.2553C55.4671 40.718 101.856 73.3374 158.13 64.5309C203.395 57.4237 243.497 34.1293 288.786 27.3246C334.687 20.4335 385.107 34.6262 429.853 43.1662C471.818 51.1951 514.316 60.4481 557.263 62.4715C595.165 64.2573 631.227 52.7216 668.854 52.2392C692.075 51.944 711.847 57.6902 733.002 65.8486C757.081 75.1304 782.645 80.7254 808.554 83.5049C857.913 88.7974 907.964 84.2898 956.914 77.8163C1015.65 70.0467 1074.47 61.521 1132.26 49.0133" stroke="var(--stroke-0, #E2E8F0)" stroke-width="1.79421" stroke-miterlimit="10"/>
<path id="Vector_51" d="M0.653954 34.6608C55.4119 37.2027 101.738 69.8797 157.957 61.8293C203.041 55.3486 243.222 32.9615 288.157 26.1711C333.579 19.3088 382.985 32.9255 427.338 41.1487C470.214 49.0695 513.648 57.9193 557.538 59.0282C596.5 60.0147 634.465 49.1128 673.341 50.3873C696.806 51.1578 716.366 58.1857 737.875 65.9913C760.216 74.0994 783.807 78.7439 807.666 80.9401C858.447 85.6134 908.812 78.7223 958.989 72.22C1016.91 64.7168 1075.34 58.9418 1132.3 46.3981" stroke="var(--stroke-0, #E2E8F0)" stroke-width="1.79421" stroke-miterlimit="10"/>
<path id="Vector_52" d="M0.661771 31.2266C55.7969 33.8909 102.311 66.8416 158.947 59.1008C204.039 52.9369 244.542 31.1402 289.548 24.8468C334.875 18.5389 383.889 31.9611 428.179 39.918C470.851 47.594 514.12 55.7596 557.782 55.7596C596.972 55.7596 635.777 46.305 674.975 48.7173C698.472 50.1574 718.197 57.5886 739.871 65.2286C762.063 73.0486 785.497 77.2035 809.151 78.8452C860.098 82.3808 909.59 73.2862 959.759 66.964C1017.3 59.7128 1075.73 56.6237 1132.28 43.9216" stroke="var(--stroke-0, #E2E8F0)" stroke-width="1.79421" stroke-miterlimit="10"/>
<path id="Vector_53" d="M0.677685 27.9567C56.2293 30.7434 102.838 63.9605 159.954 56.5221C205.061 50.6463 245.878 29.4616 290.947 23.6578C336.18 17.818 384.808 31.1466 429.075 38.8442C471.511 46.2394 514.615 53.6706 558.049 52.6193C597.522 51.6616 637.09 43.6255 676.618 47.1611C700.146 49.2709 720.028 57.0981 741.843 64.5725C763.847 72.1117 787.171 75.7769 810.605 76.8642C861.685 79.2477 910.361 67.9929 960.513 61.8434C1017.69 54.8299 1076.03 54.4411 1132.26 41.5805" stroke="var(--stroke-0, #E2E8F0)" stroke-width="1.79421" stroke-miterlimit="10"/>
<path id="Vector_54" d="M0.69304 24.8555C56.6298 27.7358 103.435 61.2337 160.951 54.105C206.067 48.51 247.198 27.9014 292.337 22.6161C337.476 17.3307 385.712 30.4793 429.861 37.9105C472.195 45.0392 515.094 51.7719 558.292 49.6621C598.111 47.7179 638.354 41.122 678.213 45.7665C701.788 48.51 721.812 56.7621 743.831 64.0636C765.851 71.3652 788.876 74.5047 812.09 75.052C863.17 76.2689 911.201 62.9043 961.299 56.9277C1018.15 50.1446 1076.44 52.4488 1132.29 39.401" stroke="var(--stroke-0, #E2E8F0)" stroke-width="1.79421" stroke-miterlimit="10"/>
<path id="Vector_55" d="M0.700997 21.9175C57.0228 24.9419 103.993 58.6414 161.918 51.8439C207.057 46.5225 248.487 26.5404 293.689 21.7015C338.702 16.8842 386.639 29.9464 430.71 37.1255C472.918 43.9951 515.581 50.0221 558.567 46.8754C598.779 43.9303 639.62 38.7673 679.832 44.4991C703.336 47.8547 723.596 56.5388 745.772 63.6747C767.54 70.6739 790.566 73.3669 813.528 73.3885C864.608 73.4461 912.026 58.0365 962.054 52.2183C1018.63 45.6368 1076.79 50.627 1132.29 37.3704" stroke="var(--stroke-0, #E2E8F0)" stroke-width="1.79421" stroke-miterlimit="10"/>
<path id="Vector_56" d="M0.708814 19.1575C57.4078 22.2826 104.519 56.263 162.861 49.7247C208.024 44.6842 249.752 25.2422 295.009 20.9217C339.975 16.6013 387.433 29.5626 431.511 36.4897C473.633 43.0856 516.084 48.4358 558.819 44.2666C599.463 40.3061 640.83 36.5761 681.411 43.3737C704.908 47.2981 725.34 56.4214 747.682 63.3918C769.347 70.1461 792.176 72.3567 814.927 71.867C865.928 70.7797 912.851 53.3971 962.808 47.7157C1019.07 41.3214 1077.07 48.9975 1132.32 35.4744" stroke="var(--stroke-0, #E2E8F0)" stroke-width="1.79421" stroke-miterlimit="10"/>
<path id="Vector_57" d="M0.725147 16.5717C57.7778 19.8048 105.054 54.0156 163.781 47.7654C208.967 42.948 251.01 24.1325 296.291 20.2225C341.163 16.3485 388.235 29.2882 432.29 35.9561C474.333 42.3 516.572 46.9805 559.063 41.8103C600.163 36.813 642.041 34.4944 682.905 42.336C706.378 46.8365 726.983 56.3919 749.521 63.2182C771.054 69.6989 793.764 71.4846 816.318 70.4981C867.186 68.2875 913.709 49.0183 963.579 43.4593C1019.57 37.2162 1077.4 47.5565 1132.38 33.7671" stroke="var(--stroke-0, #E2E8F0)" stroke-width="1.79421" stroke-miterlimit="10"/>
<path id="Vector_58" d="M0.732685 14.1676C58.0997 17.5015 105.549 51.9572 164.653 45.9589C209.863 41.3648 252.141 23.1181 297.524 19.6402C342.318 16.2126 389.044 29.1308 433.028 35.5682C475.016 41.7249 517.043 45.6997 559.283 39.5503C600.862 33.5016 643.117 32.5655 684.335 41.4224C707.761 46.463 728.562 56.4504 751.25 63.1183C772.672 69.4118 795.257 70.7151 817.575 69.2606C868.263 65.9554 914.463 44.9076 964.238 39.4206C1020.03 33.2928 1077.63 46.283 1132.36 32.1623" stroke="var(--stroke-0, #E2E8F0)" stroke-width="1.79421" stroke-miterlimit="10"/>
<path id="Vector_59" d="M0.74106 11.956C58.4695 15.3692 106.045 50.0552 165.479 44.2946C210.728 39.9165 253.266 22.2099 298.696 19.1568C343.418 16.1541 389.783 29.0722 433.728 35.3081C475.677 41.2631 517.5 44.5754 559.503 37.4683C601.507 30.3611 644.178 30.7788 685.718 40.615C709.09 46.1524 730.095 56.4567 752.909 63.0958C774.126 69.2812 796.743 70.0589 818.786 68.1363C869.269 63.8158 915.21 41.0687 964.883 35.6537C1020.44 29.5979 1077.86 45.2163 1132.36 30.714" stroke="var(--stroke-0, #E2E8F0)" stroke-width="1.79421" stroke-miterlimit="10"/>
<path id="Vector_60" d="M0.787685 9.897C58.8305 13.3822 106.508 48.2986 166.295 42.7612C211.529 38.592 254.318 21.4182 299.803 18.7611C344.424 16.1545 390.49 29.1158 434.388 35.1716C476.313 40.9323 517.939 43.6181 559.699 35.5749C602.245 27.3876 645.168 29.0942 687.007 39.8953C710.331 45.9008 731.517 56.5939 754.464 63.1394C775.595 69.1664 798.094 69.5121 819.909 67.2006C843.713 64.6731 866.919 58.8837 889.771 52.4607C914.431 45.5407 939.806 34.9844 965.496 32.1905C1020.86 26.1635 1078.09 44.3742 1132.37 29.4398" stroke="var(--stroke-0, #E2E8F0)" stroke-width="1.79421" stroke-miterlimit="10"/>
<path id="Vector_61" d="M0.787685 8.09456C59.1134 11.6373 106.877 46.777 167.01 41.4269C212.283 37.3944 255.301 20.6959 300.841 18.4348C345.39 16.1954 391.127 29.236 434.985 35.1406C476.91 40.7716 518.371 42.8238 559.888 33.8733C602.897 24.5987 646.103 27.5438 688.248 39.281C711.47 45.7617 732.837 56.7789 755.902 63.2307C776.947 69.1138 799.344 69.0706 820.947 66.3631C844.703 63.3964 867.776 57.1029 890.494 50.2694C914.974 42.9102 940.388 31.8066 966.069 28.9912C1021.26 22.9497 1078.31 43.7167 1132.38 28.2711" stroke="var(--stroke-0, #E2E8F0)" stroke-width="1.79421" stroke-miterlimit="10"/>
<path id="Vector_62" d="M0.787685 6.46061C59.3806 10.061 107.27 45.4095 167.663 40.2178C212.967 36.3149 256.189 20.1204 301.768 18.1834C346.255 16.2896 391.685 29.4814 435.511 35.2348C477.444 40.729 518.756 42.2052 560.029 32.3545C603.534 22.007 646.936 26.1115 689.38 38.7488C712.515 45.6327 734.04 56.9883 757.222 63.3682C778.181 69.1288 800.444 68.7255 821.89 65.6652C845.591 62.2809 868.546 55.5122 891.147 48.3042C915.461 40.549 940.907 28.9558 966.588 26.0971C1021.6 19.9764 1078.52 43.2709 1132.4 27.2708" stroke="var(--stroke-0, #E2E8F0)" stroke-width="1.79421" stroke-miterlimit="10"/>
<path id="Vector_63" d="M0.787685 5.02991C59.6242 8.63029 107.592 44.2236 168.244 39.1543C213.603 35.3595 257.045 19.6114 302.672 17.9913C347.111 16.4071 392.258 29.7933 436.038 35.4315C477.987 40.8249 519.181 41.7538 560.202 31.0606C604.155 19.6042 647.667 24.7888 690.409 38.2614C713.466 45.5414 735.132 57.1922 758.409 63.5144C779.297 69.1814 801.481 68.4614 822.723 65.077C846.393 61.3038 869.221 54.1031 891.72 46.5495C915.901 38.4198 941.362 26.4306 967.075 23.5071C1021.97 17.2568 1078.75 43.0211 1132.4 26.3874" stroke="var(--stroke-0, #E2E8F0)" stroke-width="1.79421" stroke-miterlimit="10"/>
<path id="Vector_64" d="M0.787685 3.8054C59.8521 7.40577 107.867 43.2223 168.755 38.2322C214.122 34.5166 257.76 19.1862 303.426 17.8181C347.819 16.5147 392.667 30.1386 436.447 35.6975C478.419 41.0261 519.534 41.4581 560.32 29.9369C604.728 17.386 648.264 23.5499 691.321 37.8578C714.276 45.4906 736.067 57.4078 759.431 63.6869C780.256 69.2891 802.33 68.2954 823.422 64.623C847.061 60.4969 869.787 52.9073 892.192 45.0369C916.262 36.576 941.7 24.2771 967.484 21.2744C1022.27 14.8298 1078.97 43.0207 1132.41 25.6525" stroke="var(--stroke-0, #E2E8F0)" stroke-width="1.79421" stroke-miterlimit="10"/>
<path id="Vector_65" d="M0.787685 2.78357C59.5613 6.38395 107.42 42.2005 167.953 37.556C215.788 33.8908 262.027 17.3363 310.294 17.6747C351.559 17.9628 392.966 30.3841 433.728 35.727C477.036 41.4012 518.489 41.2428 560.43 29.0951C606.937 15.6585 650.512 22.7225 695.337 38.7009C715.431 45.8585 734.574 55.6227 754.818 62.3266C776.24 69.4194 799.76 68.7281 821.803 64.7893C846.817 60.3248 870.762 51.8279 894.353 43.187C918.133 34.4453 943.413 22.1392 969.056 19.2589C1023.28 13.2031 1079.67 43.1006 1132.4 25.0699" stroke="var(--stroke-0, #E2E8F0)" stroke-width="1.79421" stroke-miterlimit="10"/>
<path id="Vector_66" d="M0.787685 1.97881C59.7264 5.52878 107.585 41.583 168.284 36.9313C216.134 33.2589 262.585 17.0932 310.837 17.6333C352.07 18.1013 393.264 30.8682 434.003 36.2184C477.342 41.907 518.788 41.3453 560.524 28.4056C607.502 13.8313 650.85 21.7233 696.044 38.4866C716.044 45.9034 735.242 55.7541 755.541 62.4652C776.916 69.5651 800.334 68.7298 822.251 64.5678C847.249 59.8225 871.1 50.9583 894.62 42.087C918.368 33.1293 943.641 20.6864 969.346 17.6621C1023.47 11.3398 1079.92 43.4768 1132.41 24.5748" stroke="var(--stroke-0, #E2E8F0)" stroke-width="1.79421" stroke-miterlimit="10"/>
<path id="Vector_67" d="M0.787685 1.39838C59.8442 4.89074 107.663 41.161 168.535 36.4373C216.393 32.7217 262.947 16.9016 311.261 17.6145C352.479 18.2193 393.476 31.3967 434.199 36.7901C477.562 42.5507 519.071 41.6362 560.54 27.9188C607.974 12.2355 650.975 20.79 696.555 38.259C716.507 45.899 735.753 55.8505 756.067 62.6408C777.426 69.7768 800.64 68.8767 822.542 64.5202C873.143 54.4391 918.478 22.8782 969.567 16.5128C1023.59 9.78006 1080.2 44.0845 1132.41 24.232" stroke="var(--stroke-0, #E2E8F0)" stroke-width="1.79421" stroke-miterlimit="10"/>
<path id="Vector_68" d="M0.787685 1.03474C59.9385 4.45509 107.742 40.9413 168.684 36.1024C216.55 32.2932 263.261 16.7828 311.552 17.6109C352.777 18.3309 393.594 31.9692 434.301 37.4562C477.68 43.3032 519.33 42.1222 560.564 27.6631C608.414 10.8782 650.936 19.9295 696.948 38.1042C716.735 45.9026 736.028 56.2357 756.389 62.7596C778.016 69.6795 800.53 69.1179 822.668 64.567C873.355 54.1403 918.439 22.5506 969.708 15.7243C1023.66 8.52352 1080.51 44.9233 1132.38 24.0195" stroke="var(--stroke-0, #E2E8F0)" stroke-width="1.79421" stroke-miterlimit="10"/>
<path id="Vector_69" d="M0.787685 0.8957C60.0014 4.21525 107.718 40.9175 168.724 35.8986C216.59 31.9598 263.363 16.7086 311.748 17.6015C352.982 18.3647 393.641 32.579 434.34 38.1956C477.719 44.1794 519.589 42.8041 560.579 27.6177C608.799 9.73823 650.724 19.1136 697.175 37.9796C739.611 55.2038 774.574 74.8114 822.628 64.716C873.449 54.0373 918.321 22.714 969.771 15.3404C1023.66 7.614 1080.81 45.9796 1132.44 23.9813" stroke="var(--stroke-0, #E2E8F0)" stroke-width="1.79421" stroke-miterlimit="10"/>
</g>
</svg>
