<svg preserveAspectRatio="none" width="100%" height="100%" overflow="visible" style="display: block;" viewBox="0 0 365.06 365.06" fill="none" xmlns="http://www.w3.org/2000/svg">
<g id="Group 48095586">
<path id="Vector" opacity="0.15" d="M182.53 365.06C283.339 365.06 365.06 283.339 365.06 182.53C365.06 81.7215 283.339 0 182.53 0C81.7215 0 0 81.7215 0 182.53C0 283.339 81.7215 365.06 182.53 365.06Z" fill="var(--fill-0, #FFEC4F)"/>
<path id="Vector_2" opacity="0.2" d="M182.531 325.245C261.351 325.245 325.246 261.35 325.246 182.53C325.246 103.711 261.351 39.8154 182.531 39.8154C103.712 39.8154 39.8164 103.711 39.8164 182.53C39.8164 261.35 103.712 325.245 182.531 325.245Z" fill="var(--fill-0, #FFCD05)"/>
<path id="Vector_3" opacity="0.4" d="M182.529 292.117C243.052 292.117 292.116 243.053 292.116 182.53C292.116 122.006 243.052 72.9424 182.529 72.9424C122.005 72.9424 72.9414 122.006 72.9414 182.53C72.9414 243.053 122.005 292.117 182.529 292.117Z" fill="var(--fill-0, #FFCD05)"/>
</g>
</svg>
