<svg preserveAspectRatio="none" width="100%" height="100%" overflow="visible" style="display: block;" viewBox="0 0 16.6668 20" fill="none" xmlns="http://www.w3.org/2000/svg">
<path id="Vector" d="M14.2258 14.3441C15.7897 12.7622 16.6668 10.6274 16.6668 8.40289C16.6668 6.1784 15.7897 4.0436 14.2258 2.46164C13.4554 1.68184 12.5378 1.06271 11.5263 0.640147C10.5149 0.217587 9.42955 0 8.33334 0C7.23713 0 6.15182 0.217587 5.14033 0.640147C4.12884 1.06271 3.21128 1.68184 2.44084 2.46164C0.873292 4.04724 -0.00404442 6.18813 1.40179e-05 8.41777C0.00407246 10.6474 0.889197 12.7851 2.46251 14.365L5.44917 17.1475C6.21406 17.9037 7.24549 18.3291 8.3211 18.3319C9.39672 18.3347 10.4304 17.9147 11.1992 17.1625L14.2258 14.3441ZM9.45167 12.2075C9.10414 12.3796 8.72157 12.4691 8.33376 12.4691C7.94595 12.4691 7.56337 12.3796 7.21584 12.2075L5.54917 11.3741C5.13286 11.1676 4.7827 10.8486 4.53836 10.4533C4.29402 10.058 4.16526 9.6022 4.16667 9.13748V6.66665C4.16503 6.20187 4.29359 5.74592 4.53779 5.35047C4.78198 4.95501 5.13206 4.63585 5.54834 4.42915L7.21501 3.59581C7.56237 3.42316 7.94501 3.33331 8.33292 3.33331C8.72083 3.33331 9.10347 3.42316 9.45084 3.59581L11.1175 4.42915C11.5339 4.63573 11.8842 4.95484 12.1285 5.35031C12.3729 5.74578 12.5016 6.20178 12.5 6.66665V9.13831C12.5015 9.60295 12.3729 10.0587 12.1287 10.454C11.8845 10.8493 11.5345 11.1683 11.1183 11.375L9.45167 12.2075ZM10.7908 6.41164C10.8182 6.49392 10.8325 6.57995 10.8333 6.66665V9.13831C10.834 9.29329 10.7912 9.44535 10.7097 9.57719C10.6282 9.70904 10.5114 9.81539 10.3725 9.88415L8.70584 10.7175C8.58995 10.775 8.46232 10.805 8.33292 10.805C8.20353 10.805 8.07589 10.775 7.96001 10.7175L6.29334 9.88415C6.15447 9.81521 6.03774 9.70868 5.95642 9.57668C5.8751 9.44468 5.83246 9.29251 5.83334 9.13748V6.66665C5.83467 6.58163 5.849 6.49732 5.87584 6.41664L7.69251 7.32498C7.89149 7.42444 8.11089 7.47621 8.33334 7.47621C8.55579 7.47621 8.77519 7.42444 8.97417 7.32498L10.7908 6.41164ZM15 19.1666C15 19.3877 14.9122 19.5996 14.7559 19.7559C14.5996 19.9122 14.3877 20 14.1667 20H2.50001C2.27899 20 2.06703 19.9122 1.91075 19.7559C1.75447 19.5996 1.66667 19.3877 1.66667 19.1666C1.66667 18.9456 1.75447 18.7337 1.91075 18.5774C2.06703 18.4211 2.27899 18.3333 2.50001 18.3333H14.1667C14.3877 18.3333 14.5996 18.4211 14.7559 18.5774C14.9122 18.7337 15 18.9456 15 19.1666Z" fill="var(--fill-0, #023DFF)"/>
</svg>
