<svg preserveAspectRatio="none" width="100%" height="100%" overflow="visible" style="display: block;" viewBox="0 0 18.3333 20" fill="none" xmlns="http://www.w3.org/2000/svg">
<path id="Vector" d="M13.3333 5.83333C13.3333 6.05435 13.2455 6.26631 13.0893 6.42259C12.933 6.57887 12.721 6.66667 12.5 6.66667H5.83333C5.61232 6.66667 5.40036 6.57887 5.24408 6.42259C5.0878 6.26631 5 6.05435 5 5.83333C5 5.61232 5.0878 5.40036 5.24408 5.24408C5.40036 5.0878 5.61232 5 5.83333 5H12.5C12.721 5 12.933 5.0878 13.0893 5.24408C13.2455 5.40036 13.3333 5.61232 13.3333 5.83333ZM18.3333 4.16667V15.8333C18.332 16.938 17.8926 17.997 17.1115 18.7782C16.3304 19.5593 15.2713 19.9987 14.1667 20H4.16667C3.062 19.9987 2.00296 19.5593 1.22185 18.7782C0.440735 17.997 0.00132321 16.938 0 15.8333V4.16667C0.00132321 3.062 0.440735 2.00296 1.22185 1.22185C2.00296 0.440735 3.062 0.00132321 4.16667 0L14.1667 0C15.2713 0.00132321 16.3304 0.440735 17.1115 1.22185C17.8926 2.00296 18.332 3.062 18.3333 4.16667V4.16667ZM5 15C5 14.8352 4.95113 14.6741 4.85956 14.537C4.76799 14.4 4.63784 14.2932 4.48557 14.2301C4.3333 14.167 4.16574 14.1505 4.00409 14.1827C3.84244 14.2148 3.69396 14.2942 3.57741 14.4107C3.46087 14.5273 3.3815 14.6758 3.34935 14.8374C3.31719 14.9991 3.33369 15.1666 3.39677 15.3189C3.45984 15.4712 3.56665 15.6013 3.70369 15.6929C3.84073 15.7845 4.00185 15.8333 4.16667 15.8333C4.38768 15.8333 4.59964 15.7455 4.75592 15.5893C4.9122 15.433 5 15.221 5 15ZM5 11.6667C5 11.5018 4.95113 11.3407 4.85956 11.2037C4.76799 11.0666 4.63784 10.9598 4.48557 10.8968C4.3333 10.8337 4.16574 10.8172 4.00409 10.8493C3.84244 10.8815 3.69396 10.9609 3.57741 11.0774C3.46087 11.194 3.3815 11.3424 3.34935 11.5041C3.31719 11.6657 3.33369 11.8333 3.39677 11.9856C3.45984 12.1378 3.56665 12.268 3.70369 12.3596C3.84073 12.4511 4.00185 12.5 4.16667 12.5C4.38768 12.5 4.59964 12.4122 4.75592 12.2559C4.9122 12.0996 5 11.8877 5 11.6667ZM8.33333 15C8.33333 14.8352 8.28446 14.6741 8.19289 14.537C8.10132 14.4 7.97118 14.2932 7.8189 14.2301C7.66663 14.167 7.49908 14.1505 7.33743 14.1827C7.17577 14.2148 7.02729 14.2942 6.91074 14.4107C6.7942 14.5273 6.71483 14.6758 6.68268 14.8374C6.65052 14.9991 6.66703 15.1666 6.7301 15.3189C6.79317 15.4712 6.89998 15.6013 7.03702 15.6929C7.17407 15.7845 7.33518 15.8333 7.5 15.8333C7.72101 15.8333 7.93298 15.7455 8.08926 15.5893C8.24554 15.433 8.33333 15.221 8.33333 15ZM8.33333 11.6667C8.33333 11.5018 8.28446 11.3407 8.19289 11.2037C8.10132 11.0666 7.97118 10.9598 7.8189 10.8968C7.66663 10.8337 7.49908 10.8172 7.33743 10.8493C7.17577 10.8815 7.02729 10.9609 6.91074 11.0774C6.7942 11.194 6.71483 11.3424 6.68268 11.5041C6.65052 11.6657 6.66703 11.8333 6.7301 11.9856C6.79317 12.1378 6.89998 12.268 7.03702 12.3596C7.17407 12.4511 7.33518 12.5 7.5 12.5C7.72101 12.5 7.93298 12.4122 8.08926 12.2559C8.24554 12.0996 8.33333 11.8877 8.33333 11.6667ZM15 15C15 14.779 14.9122 14.567 14.7559 14.4107C14.5996 14.2545 14.3877 14.1667 14.1667 14.1667H10.8333C10.6123 14.1667 10.4004 14.2545 10.2441 14.4107C10.0878 14.567 10 14.779 10 15C10 15.221 10.0878 15.433 10.2441 15.5893C10.4004 15.7455 10.6123 15.8333 10.8333 15.8333H14.1667C14.3877 15.8333 14.5996 15.7455 14.7559 15.5893C14.9122 15.433 15 15.221 15 15ZM10.8333 12.5C10.9982 12.5 11.1593 12.4511 11.2963 12.3596C11.4334 12.268 11.5402 12.1378 11.6032 11.9856C11.6663 11.8333 11.6828 11.6657 11.6507 11.5041C11.6185 11.3424 11.5391 11.194 11.4226 11.0774C11.306 10.9609 11.1576 10.8815 10.9959 10.8493C10.8343 10.8172 10.6667 10.8337 10.5144 10.8968C10.3622 10.9598 10.232 11.0666 10.1404 11.2037C10.0489 11.3407 10 11.5018 10 11.6667C10 11.8877 10.0878 12.0996 10.2441 12.2559C10.4004 12.4122 10.6123 12.5 10.8333 12.5ZM15 11.6667C15 11.5018 14.9511 11.3407 14.8596 11.2037C14.768 11.0666 14.6378 10.9598 14.4856 10.8968C14.3333 10.8337 14.1657 10.8172 14.0041 10.8493C13.8424 10.8815 13.694 10.9609 13.5774 11.0774C13.4609 11.194 13.3815 11.3424 13.3493 11.5041C13.3172 11.6657 13.3337 11.8333 13.3968 11.9856C13.4598 12.1378 13.5667 12.268 13.7037 12.3596C13.8407 12.4511 14.0018 12.5 14.1667 12.5C14.3877 12.5 14.5996 12.4122 14.7559 12.2559C14.9122 12.0996 15 11.8877 15 11.6667ZM15 5.83333C15 5.17029 14.7366 4.53441 14.2678 4.06557C13.7989 3.59673 13.163 3.33333 12.5 3.33333H5.83333C5.17029 3.33333 4.53441 3.59673 4.06557 4.06557C3.59673 4.53441 3.33333 5.17029 3.33333 5.83333C3.33333 6.49637 3.59673 7.13226 4.06557 7.6011C4.53441 8.06994 5.17029 8.33333 5.83333 8.33333H12.5C13.163 8.33333 13.7989 8.06994 14.2678 7.6011C14.7366 7.13226 15 6.49637 15 5.83333Z" fill="var(--fill-0, #023DFF)"/>
</svg>
