<svg preserveAspectRatio="none" width="100%" height="100%" overflow="visible" style="display: block;" viewBox="0 0 16 24" fill="none" xmlns="http://www.w3.org/2000/svg">
<g id="Vector">
<mask id="path-1-inside-1_0_1186" fill="white">
<path d="M11 0H5C3.6744 0.00158786 2.40356 0.528882 1.46622 1.46622C0.528882 2.40356 0.00158786 3.6744 0 5V19C0.00158786 20.3256 0.528882 21.5964 1.46622 22.5338C2.40356 23.4711 3.6744 23.9984 5 24H11C12.3256 23.9984 13.5964 23.4711 14.5338 22.5338C15.4711 21.5964 15.9984 20.3256 16 19V5C15.9984 3.6744 15.4711 2.40356 14.5338 1.46622C13.5964 0.528882 12.3256 0.00158786 11 0V0ZM5 2H11C11.7956 2 12.5587 2.31607 13.1213 2.87868C13.6839 3.44129 14 4.20435 14 5V16H2V5C2 4.20435 2.31607 3.44129 2.87868 2.87868C3.44129 2.31607 4.20435 2 5 2V2ZM11 22H5C4.20435 22 3.44129 21.6839 2.87868 21.1213C2.31607 20.5587 2 19.7956 2 19V18H14V19C14 19.7956 13.6839 20.5587 13.1213 21.1213C12.5587 21.6839 11.7956 22 11 22V22Z"/>
</mask>
<path d="M11 0H5C3.6744 0.00158786 2.40356 0.528882 1.46622 1.46622C0.528882 2.40356 0.00158786 3.6744 0 5V19C0.00158786 20.3256 0.528882 21.5964 1.46622 22.5338C2.40356 23.4711 3.6744 23.9984 5 24H11C12.3256 23.9984 13.5964 23.4711 14.5338 22.5338C15.4711 21.5964 15.9984 20.3256 16 19V5C15.9984 3.6744 15.4711 2.40356 14.5338 1.46622C13.5964 0.528882 12.3256 0.00158786 11 0V0ZM5 2H11C11.7956 2 12.5587 2.31607 13.1213 2.87868C13.6839 3.44129 14 4.20435 14 5V16H2V5C2 4.20435 2.31607 3.44129 2.87868 2.87868C3.44129 2.31607 4.20435 2 5 2V2ZM11 22H5C4.20435 22 3.44129 21.6839 2.87868 21.1213C2.31607 20.5587 2 19.7956 2 19V18H14V19C14 19.7956 13.6839 20.5587 13.1213 21.1213C12.5587 21.6839 11.7956 22 11 22V22Z" fill="var(--fill-0, #023DFF)"/>
<path d="M11 0H32.3333V-21.3333H11V0ZM5 0V-21.3333H4.98722L4.97445 -21.3333L5 0ZM0 5L-21.3333 4.97445L-21.3333 4.98722V5H0ZM0 19H-21.3333V19.0128L-21.3333 19.0256L0 19ZM5 24L4.97445 45.3333L4.98722 45.3333H5V24ZM11 24V45.3333H11.0128L11.0256 45.3333L11 24ZM16 19L37.3333 19.0256L37.3333 19.0128V19H16ZM16 5H37.3333V4.98722L37.3333 4.97445L16 5ZM11 0H-10.3333V21.3078L10.9744 21.3333L11 0ZM14 5H35.3333H14ZM14 16V37.3333H35.3333V16H14ZM2 16H-19.3333V37.3333H2V16ZM5 22V43.3333V22ZM2 18V-3.33333H-19.3333V18H2ZM14 18H35.3333V-3.33333H14V18ZM14 19H35.3333H14ZM11 0V-21.3333H5V0V21.3333H11V0ZM5 0L4.97445 -21.3333C-2.00024 -21.325 -8.68687 -18.5506 -13.6187 -13.6187L1.46622 1.46622L16.5512 16.5512C13.494 19.6083 9.34905 21.3281 5.02555 21.3333L5 0ZM1.46622 1.46622L-13.6187 -13.6187C-18.5506 -8.68687 -21.325 -2.00024 -21.3333 4.97445L0 5L21.3333 5.02555C21.3281 9.34905 19.6083 13.494 16.5512 16.5512L1.46622 1.46622ZM0 5H-21.3333V19H0H21.3333V5H0ZM0 19L-21.3333 19.0256C-21.325 26.0002 -18.5506 32.6869 -13.6187 37.6187L1.46622 22.5338L16.5512 7.44884C19.6083 10.506 21.3281 14.651 21.3333 18.9744L0 19ZM1.46622 22.5338L-13.6187 37.6187C-8.68686 42.5506 -2.00023 45.325 4.97445 45.3333L5 24L5.02555 2.66668C9.34904 2.67186 13.494 4.39165 16.5512 7.44884L1.46622 22.5338ZM5 24V45.3333H11V24V2.66667H5V24ZM11 24L11.0256 45.3333C18.0002 45.325 24.6869 42.5506 29.6187 37.6187L14.5338 22.5338L-0.551164 7.44884C2.50602 4.39165 6.65096 2.67186 10.9744 2.66668L11 24ZM14.5338 22.5338L29.6187 37.6187C34.5506 32.6869 37.325 26.0002 37.3333 19.0256L16 19L-5.33332 18.9744C-5.32814 14.651 -3.60835 10.506 -0.551164 7.44884L14.5338 22.5338ZM16 19H37.3333V5H16H-5.33333V19H16ZM16 5L37.3333 4.97445C37.325 -2.00023 34.5506 -8.68686 29.6187 -13.6187L14.5338 1.46622L-0.551164 16.5512C-3.60835 13.494 -5.32814 9.34904 -5.33332 5.02555L16 5ZM14.5338 1.46622L29.6187 -13.6187C24.6869 -18.5506 18.0002 -21.325 11.0256 -21.3333L11 0L10.9744 21.3333C6.65095 21.3281 2.50602 19.6083 -0.551164 16.5512L14.5338 1.46622ZM11 0H32.3333V0H11H-10.3333V0H11ZM5 2V23.3333H11V2V-19.3333H5V2ZM11 2V23.3333C6.1377 23.3333 1.47454 21.4018 -1.96362 17.9636L13.1213 2.87868L28.2063 -12.2063C23.6429 -16.7697 17.4536 -19.3333 11 -19.3333V2ZM13.1213 2.87868L-1.96362 17.9636C-5.4018 14.5255 -7.33333 9.8623 -7.33333 5H14H35.3333C35.3333 -1.4536 32.7697 -7.64288 28.2063 -12.2063L13.1213 2.87868ZM14 5H-7.33333V16H14H35.3333V5H14ZM14 16V-5.33333H2V16V37.3333H14V16ZM2 16H23.3333V5H2H-19.3333V16H2ZM2 5H23.3333C23.3333 9.8623 21.4018 14.5255 17.9636 17.9636L2.87868 2.87868L-12.2063 -12.2063C-16.7696 -7.64288 -19.3333 -1.4536 -19.3333 5H2ZM2.87868 2.87868L17.9636 17.9636C14.5255 21.4018 9.8623 23.3333 5 23.3333V2V-19.3333C-1.4536 -19.3333 -7.64288 -16.7696 -12.2063 -12.2063L2.87868 2.87868ZM11 22V0.666666H5V22V43.3333H11V22ZM5 22V0.666666C9.8623 0.666666 14.5255 2.5982 17.9636 6.03638L2.87868 21.1213L-12.2063 36.2063C-7.64288 40.7697 -1.4536 43.3333 5 43.3333V22ZM2.87868 21.1213L17.9636 6.03638C21.4018 9.47454 23.3333 14.1377 23.3333 19H2H-19.3333C-19.3333 25.4536 -16.7697 31.6429 -12.2063 36.2063L2.87868 21.1213ZM2 19H23.3333V18H2H-19.3333V19H2ZM2 18V39.3333H14V18V-3.33333H2V18ZM14 18H-7.33333V19H14H35.3333V18H14ZM14 19H-7.33333C-7.33333 14.1377 -5.4018 9.47455 -1.96362 6.03638L13.1213 21.1213L28.2063 36.2063C32.7697 31.6429 35.3333 25.4536 35.3333 19H14ZM13.1213 21.1213L-1.96362 6.03638C1.47455 2.5982 6.13771 0.666666 11 0.666666V22V43.3333C17.4536 43.3333 23.6429 40.7697 28.2063 36.2063L13.1213 21.1213Z" fill="var(--stroke-0, #023DFF)" mask="url(#path-1-inside-1_0_1186)"/>
</g>
</svg>
