<svg preserveAspectRatio="none" width="100%" height="100%" overflow="visible" style="display: block;" viewBox="0 0 17.3932 20" fill="none" xmlns="http://www.w3.org/2000/svg">
<g id="Group 882">
<path id="Vector (Stroke)" d="M15.8907 4.32095C15.8907 4.0146 15.7491 3.72555 15.5071 3.53755L13.1526 1.71054L13.1526 1.71049C12.9787 1.5755 12.7649 1.50231 12.5447 1.50231H4.84872C4.63552 1.50231 4.42795 1.57114 4.25716 1.69807L4.24075 1.71054L1.88634 3.53755C1.64429 3.72555 1.50274 4.0146 1.50274 4.32095V15.5879C1.50274 15.8827 1.63392 16.1619 1.86004 16.3498L1.87089 16.3587L1.87108 16.3589L4.24495 18.2773L4.24514 18.2775C4.42129 18.4199 4.64113 18.4977 4.86838 18.4977H12.5257C12.7434 18.4977 12.9546 18.4261 13.1273 18.2944L15.5223 16.3589C15.7554 16.1705 15.8907 15.8872 15.8907 15.5879V4.32095ZM17.3932 15.5879C17.3932 16.3411 17.0527 17.0537 16.4669 17.5272L15.7453 18.1103H15.7465L14.0936 19.4458C13.6499 19.8042 13.0966 20 12.5257 20H4.86838C4.2978 20 3.74428 19.8047 3.30022 19.4455L0.926535 17.5272C0.340464 17.0538 0.000186194 16.3408 0.000183105 15.5879V4.32095C0.000183105 3.55031 0.356391 2.82331 0.964907 2.35086L0.965071 2.35074L3.31949 0.523729L3.34007 0.507933C3.7736 0.178682 4.3036 0 4.84872 0H12.5447C13.0983 3.24738e-07 13.6363 0.184059 14.0739 0.523729L16.4283 2.35074L16.4285 2.35086C17.037 2.82331 17.3932 3.55031 17.3932 4.32095V15.5879Z" fill="var(--fill-0, #492504)"/>
<path id="Vector" d="M14.3218 3.90903L12.9213 2.76679C12.7158 2.59919 12.4587 2.50746 12.1935 2.50746H5.16398C4.89875 2.50746 4.64168 2.59895 4.43616 2.76679L3.0352 3.90927C2.76662 4.12826 2.61074 4.45674 2.6105 4.80372L2.60715 15.1958C2.60715 15.543 2.76302 15.8717 3.03185 16.091L4.43232 17.2332C4.63784 17.4008 4.89491 17.4925 5.16014 17.4925H12.1896C12.4548 17.4925 12.7119 17.4011 12.9174 17.2332L14.3184 16.0907C14.587 15.8717 14.7429 15.5433 14.7431 15.1963L14.7465 4.8042C14.7465 4.45698 14.5906 4.12826 14.3218 3.90903ZM5.33256 5.99662C5.33256 5.69432 5.5774 5.44915 5.87932 5.44915H8.67164C8.36973 7.06851 7.00522 8.31713 5.33232 8.44007V5.99686L5.33256 5.99662ZM8.71913 13.976C8.71913 14.2783 8.47428 14.5235 8.17236 14.5235H5.87956C5.57764 14.5235 5.3328 14.2783 5.3328 13.976V8.46192C7.12153 8.59279 8.55797 10.0059 8.71937 11.788V13.976H8.71913ZM12.2376 9.63226C12.2376 10.7709 11.3158 11.6939 10.1786 11.6939H8.76085C8.96661 9.92352 10.429 8.53804 12.2376 8.45544V9.6325V9.63226ZM12.2376 8.44679C10.5141 8.36779 9.10522 7.10093 8.79826 5.44915H10.1786C11.3158 5.44915 12.2376 6.37217 12.2376 7.51081V8.44679Z" fill="var(--fill-0, #492504)"/>
</g>
</svg>
