<svg preserveAspectRatio="none" width="100%" height="100%" overflow="visible" style="display: block;" viewBox="0 0 13.9116 16" fill="none" xmlns="http://www.w3.org/2000/svg">
<g id="Group 881">
<path id="Vector (Stroke)" d="M9.77139 1.74617C10.0441 1.74617 10.3083 1.84019 10.5199 2.01237L10.5199 2.01243L11.6414 2.9258L11.6414 2.92584C11.9178 3.15098 12.0782 3.48856 12.0782 3.84508L12.0755 12.1554C12.0755 12.5118 11.9149 12.8489 11.6387 13.074L11.6387 13.074L10.5171 13.9878L10.5171 13.9877C10.3056 14.16 10.0413 14.254 9.7685 14.254H4.13998C3.86728 14.254 3.60301 14.16 3.39147 13.9878L3.39141 13.9878L2.26996 13.0744L2.26992 13.0744C1.99359 12.8492 1.83316 12.5116 1.83316 12.1551L1.83585 3.84482C1.83588 3.48837 1.9964 3.15125 2.27259 2.92621L3.39422 2.01247C3.60567 1.84016 3.87001 1.74617 4.14284 1.74617H9.77139ZM4.14284 2.27098C3.99069 2.27098 3.84347 2.32337 3.72575 2.4193L3.72573 2.41932L2.60408 3.33309C2.44996 3.45867 2.36065 3.6465 2.36065 3.84489L2.35797 12.1552C2.358 12.3539 2.44742 12.542 2.60141 12.6675L3.72275 13.5808L3.7339 13.5897C3.84998 13.6801 3.99282 13.7292 4.13998 13.7292H9.7685C9.92065 13.7292 10.0679 13.6768 10.1856 13.5809L10.1856 13.5809L11.3073 12.6671C11.4614 12.5415 11.5507 12.3537 11.5507 12.1553L11.5534 3.84508L11.5531 3.82648C11.5477 3.63465 11.4591 3.45426 11.3099 3.33269L10.1886 2.41938C10.0706 2.32332 9.92328 2.27098 9.77139 2.27098H4.14284Z" fill="var(--fill-0, #020617)"/>
<path id="Vector (Stroke)_2" d="M12.7121 3.45595C12.7121 3.21038 12.5986 2.97857 12.4048 2.82824L12.4047 2.82817L10.5213 1.36624L10.5211 1.36613C10.3821 1.25813 10.2107 1.19943 10.0341 1.19943H3.87747C3.70101 1.19943 3.52951 1.2582 3.39016 1.36631L1.50685 2.82809L1.50687 2.82811C1.31287 2.97875 1.19943 3.21051 1.19943 3.45595V12.4709C1.19943 12.7109 1.30785 12.938 1.49458 13.0889L1.49462 13.0889L3.39358 14.6239L3.39364 14.6239C3.53501 14.7382 3.71136 14.8006 3.89317 14.8006H10.0189C10.1932 14.8006 10.3624 14.7432 10.5006 14.6378L12.4169 13.0889C12.6036 12.9379 12.7121 12.7107 12.7121 12.4709V3.45595ZM13.9115 12.4709C13.9115 13.0733 13.6391 13.6431 13.171 14.0217L13.1709 14.0218L12.5909 14.4905H12.5912L11.2726 15.5566C10.9177 15.8435 10.4751 16 10.0189 16H3.89317C3.43695 16 2.99441 15.8436 2.63954 15.5566L0.740647 14.0218L0.71883 14.0039C0.263664 13.6253 1.73375e-06 13.0637 0 12.4709V3.45595C0 2.83995 0.284708 2.25853 0.771277 1.88072L0.771352 1.88067L2.65481 0.418739L2.65492 0.418664C3.00454 0.147408 3.43468 0 3.87747 0H10.0341C10.4766 0 10.9069 0.147067 11.2569 0.418832L11.2568 0.418851L13.1401 1.88059C13.6269 2.25832 13.9115 2.84007 13.9115 3.45595V12.4709Z" fill="var(--fill-0, #020617)"/>
<g id="Group">
<path id="Vector" d="M7.07263 9.36555H8.20788C9.11838 9.36555 9.85644 8.6275 9.85644 7.717V6.77585C8.4083 6.84195 7.23722 7.9498 7.07263 9.36574V9.36555Z" fill="var(--fill-0, #020617)"/>
<path id="Vector_2" d="M7.00135 4.3718H4.76554C4.52373 4.3718 4.32772 4.56781 4.32772 4.80962V6.76339C5.66703 6.6651 6.75974 5.66666 7.00155 4.37161L7.00135 4.3718Z" fill="var(--fill-0, #020617)"/>
<path id="Vector_3" d="M9.85644 6.76876V6.02036C9.85644 5.10986 9.11838 4.37181 8.20788 4.37181H7.10253C7.34835 5.69272 8.47651 6.70573 9.85644 6.76895V6.76876Z" fill="var(--fill-0, #020617)"/>
<path id="Vector_4" d="M4.32753 6.78102V11.1904C4.32753 11.4322 4.52354 11.6282 4.76535 11.6282H6.60129C6.84309 11.6282 7.0391 11.4322 7.0391 11.1904V9.44067C6.90977 8.01572 5.75958 6.88564 4.32734 6.78102H4.32753Z" fill="var(--fill-0, #020617)"/>
</g>
</g>
</svg>
