<svg preserveAspectRatio="none" width="100%" height="100%" overflow="visible" style="display: block;" viewBox="0 0 749.271 134.852" fill="none" xmlns="http://www.w3.org/2000/svg">
<g id="Weave">
<path id="Vector" d="M393.735 31.7027C393.735 31.7027 420.155 52.0786 469.575 50.9523C514.375 49.9301 561.712 24.7128 637.955 24.6607C696.207 24.6205 749.271 56.3569 749.271 56.3569V113.587H393.735V31.7027Z" fill="var(--fill-0, #FFDA14)"/>
<path id="Vector_2" d="M38.1995 7.04205C38.1995 7.04205 64.6191 27.418 114.039 26.2916C158.839 25.2694 206.176 0.0520961 282.419 3.82087e-05C340.671 -0.0401883 393.735 31.6962 393.735 31.6962V88.9267H38.1995V7.04205Z" fill="var(--fill-0, #FFDA14)"/>
<path id="Vector_3" d="M355.148 42.5426C355.148 42.5426 381.567 62.9185 430.988 61.7921C475.787 60.7699 523.125 35.5526 599.368 35.5005C657.62 35.4603 710.684 67.1967 710.684 67.1967V124.427H355.148V42.5426Z" fill="var(--fill-0, #FFFDC6)"/>
<path id="Vector_4" d="M0 18.1529C0 18.1529 26.4196 38.5289 75.8399 37.4025C120.64 36.3803 167.977 11.163 244.22 11.1109C302.472 11.0707 355.536 42.8071 355.536 42.8071V100.038H0V18.1529Z" fill="var(--fill-0, #FFFDC6)"/>
<path id="Vector_5" d="M302.269 52.9669C302.269 52.9669 328.688 73.3428 378.109 72.2165C422.908 71.1942 470.246 45.9769 546.489 45.9249C604.74 45.8846 657.805 77.621 657.805 77.621V134.852H302.269V52.9669Z" fill="var(--fill-0, #FEFDEA)"/>
</g>
</svg>
