<svg width="34" height="36" viewBox="0 0 34 36" fill="none" xmlns="http://www.w3.org/2000/svg">
<g clip-path="url(#clip0_13269_54548)">
<path d="M7.18109 5.45394C7.98116 2.44181 11.0502 0.654276 14.0361 1.46137L28.4532 5.35838C31.439 6.16549 33.2109 9.26158 32.4106 12.2737L28.5478 26.8175C27.7477 29.8295 24.6786 31.6171 21.6928 30.81L7.27582 26.9131C4.28997 26.106 2.51803 23.0099 3.31808 19.9978L7.18109 5.45394Z" fill="#A8CFFF"/>
<path d="M14.9321 5.74422H13.5099V4.52099C13.5099 4.38912 13.4017 4.28223 13.2683 4.28223C13.1349 4.28223 13.0268 4.38912 13.0268 4.52099V5.74422H11.4813C11.3479 5.74422 11.2397 5.85115 11.2397 5.98301C11.2397 6.11488 11.3479 6.22178 11.4813 6.22178H13.0268V7.44501C13.0268 7.57688 13.1349 7.6838 13.2683 7.6838C13.4017 7.6838 13.5099 7.57688 13.5099 7.44501V6.22178H14.9321C15.0655 6.22178 15.1736 6.11488 15.1736 5.98301C15.1736 5.85115 15.0655 5.74422 14.9321 5.74422Z" fill="#FFEC4F"/>
<path d="M0.140625 16.7001C0.140625 13.5379 0.140625 11.9568 0.750669 10.749C1.28728 9.68655 2.14352 8.82278 3.19669 8.28145C4.39397 7.66602 5.96128 7.66602 9.09594 7.66602H17.305C20.4396 7.66602 22.007 7.66602 23.2043 8.28145C24.2574 8.82278 25.1137 9.68655 25.6503 10.749C26.2603 11.9568 26.2603 13.5379 26.2603 16.7001V24.9814C26.2603 28.1437 26.2603 29.7247 25.6503 30.9325C25.1137 31.995 24.2574 32.859 23.2043 33.4001C22.007 34.0155 20.4396 34.0155 17.305 34.0155H9.09594C5.96128 34.0155 4.39397 34.0155 3.19669 33.4001C2.14352 32.859 1.28728 31.995 0.750669 30.9325C0.140625 29.7247 0.140625 28.1437 0.140625 24.9814V16.7001Z" fill="white" fill-opacity="0.4"/>
<path d="M9.09601 7.90137H17.3052C18.8763 7.90137 20.0408 7.90154 20.9624 7.97751C21.8812 8.05322 22.5382 8.20306 23.0984 8.491C24.1077 9.00977 24.9284 9.83771 25.4427 10.8559C25.7281 11.4211 25.8766 12.084 25.9517 13.0109C26.027 13.9406 26.0271 15.1152 26.0271 16.7001V24.9815C26.0271 26.5665 26.027 27.7412 25.9517 28.6711C25.8766 29.5977 25.7281 30.2605 25.4427 30.8257C24.9284 31.8439 24.1077 32.6719 23.0984 33.1907C22.5382 33.4787 21.8812 33.6283 20.9624 33.704C20.0408 33.78 18.8763 33.7803 17.3052 33.7803H9.09601C7.5249 33.7803 6.36061 33.78 5.43902 33.704C4.52015 33.6283 3.86302 33.4787 3.30275 33.1907C2.29348 32.6719 1.47276 31.8439 0.958509 30.8257C0.673089 30.2605 0.524559 29.5977 0.449484 28.6711C0.374184 27.7412 0.374023 26.5665 0.374023 24.9815V16.7001C0.374023 15.1152 0.374192 13.9406 0.449484 13.0109C0.524559 12.084 0.673055 11.4211 0.958509 10.8559C1.47276 9.83771 2.29348 9.00977 3.30275 8.491C3.86302 8.20303 4.52015 8.05322 5.43902 7.97751C6.36061 7.90154 7.52493 7.90137 9.09601 7.90137Z" stroke="white" stroke-opacity="0.6" stroke-width="1.65992"/>
<path d="M5.65914 22.752H4.2369V21.5288C4.2369 21.3969 4.12875 21.29 3.99536 21.29C3.86197 21.29 3.75382 21.3969 3.75382 21.5288V22.752H2.20833C2.07494 22.752 1.9668 22.859 1.9668 22.9908C1.9668 23.1227 2.07494 23.2296 2.20833 23.2296H3.75382V24.4528C3.75382 24.5847 3.86197 24.6916 3.99536 24.6916C4.12875 24.6916 4.2369 24.5847 4.2369 24.4528V23.2296H5.65914C5.79253 23.2296 5.90068 23.1227 5.90068 22.9908C5.90068 22.859 5.79253 22.752 5.65914 22.752Z" fill="#FFEC4F"/>
<mask id="mask0_13269_54548" style="mask-type:luminance" maskUnits="userSpaceOnUse" x="3" y="8" width="28" height="28">
<path d="M30.3473 8.53418H3.37207V35.7468H30.3473V8.53418Z" fill="white"/>
</mask>
<g mask="url(#mask0_13269_54548)">
<path d="M28.6471 26.4529C27.3923 28.0197 25.3553 28.8366 22.2728 29.0798C19.9888 31.2322 17.3218 32.268 14.6076 32.1427C14.6047 32.1427 14.6011 32.1418 14.5982 32.1418C12.405 32.0392 10.1824 31.1786 8.10596 29.5382C10.7607 28.1409 12.7666 26.07 13.6039 23.1316C15.1275 17.7981 12.1015 12.0859 12.1015 12.0859C16.7772 12.0859 24.984 12.6353 29.9945 14.4221C30.4157 18.2666 30.8863 23.6676 28.6471 26.4529Z" fill="#FCF4F6"/>
<path d="M28.6469 26.4531C25.3375 30.8477 19.8065 32.5244 14.6074 32.1426C17.3216 32.2682 19.9886 31.2324 22.2726 29.08C25.3551 28.8368 27.3921 28.0199 28.6469 26.4531Z" fill="#F0E3E7"/>
<path d="M28.8438 19.4553C28.8354 19.4553 28.8267 19.4543 28.818 19.4524C26.4364 18.9094 22.0575 18.4692 18.8034 18.1955C18.7385 18.19 18.6903 18.1325 18.6957 18.0671C18.7012 18.0017 18.7583 17.9528 18.823 17.9585C22.0845 18.2328 26.4752 18.6745 28.8697 19.2203C28.9332 19.2349 28.9731 19.2985 28.9588 19.3626C28.9464 19.4178 28.8978 19.4553 28.8438 19.4553Z" fill="#F0E3E7"/>
<path d="M28.9068 17.1808C28.8984 17.1808 28.8896 17.1799 28.8809 17.1779C26.4995 16.6351 22.1206 16.1948 18.8664 15.921C18.8015 15.9156 18.7533 15.858 18.7587 15.7927C18.7641 15.7272 18.821 15.6784 18.886 15.684C22.1476 15.9584 26.5382 16.4 28.9326 16.9459C28.9964 16.9604 29.036 17.0241 29.0217 17.0881C29.0094 17.1434 28.9607 17.1808 28.9068 17.1808Z" fill="#F0E3E7"/>
<path d="M27.6335 22.2019C27.6249 22.2019 27.6162 22.2009 27.6075 22.199C25.4766 21.7132 21.5667 21.3189 18.662 21.0736C16.7135 20.909 15.249 20.8148 15.2344 20.8139C15.1694 20.8097 15.1201 20.7532 15.1243 20.6877C15.1284 20.6221 15.1856 20.5715 15.2494 20.5765C15.2639 20.5775 16.7308 20.6718 18.6817 20.8366C21.5938 21.0825 25.5153 21.4782 27.6594 21.967C27.723 21.9815 27.7628 22.0451 27.7485 22.1092C27.736 22.1644 27.6874 22.2019 27.6335 22.2019Z" fill="#F0E3E7"/>
<path d="M27.0842 24.5182C27.0756 24.5182 27.0669 24.5173 27.0582 24.5153C23.4818 23.7 14.7727 23.1358 14.6851 23.1302C14.6202 23.1261 14.5709 23.0695 14.5749 23.004C14.5791 22.9384 14.6363 22.8882 14.7001 22.8929C14.7878 22.8985 23.5157 23.4639 27.1101 24.2833C27.1737 24.2978 27.2135 24.3615 27.1992 24.4255C27.1868 24.4808 27.1381 24.5182 27.0842 24.5182Z" fill="#F0E3E7"/>
<path d="M21.1667 26.1619C21.1625 26.1619 21.1582 26.1616 21.154 26.1612C17.7177 25.7889 13.8383 25.5602 13.7996 25.5579C13.7345 25.5541 13.6849 25.4978 13.6887 25.4323C13.6924 25.3667 13.7483 25.318 13.8132 25.3204C13.852 25.3227 17.737 25.5519 21.1792 25.9247C21.2439 25.9317 21.2907 25.9904 21.2837 26.0557C21.2773 26.1166 21.2261 26.1619 21.1667 26.1619Z" fill="#F0E3E7"/>
<path d="M13.073 30.5148C13.0404 30.4581 13.0596 30.3852 13.116 30.3523C14.8111 29.363 14.8707 28.9044 14.8485 28.7873C14.8223 28.649 14.6242 28.5453 14.2906 28.4954C14.2262 28.4857 14.1817 28.4253 14.1913 28.3604C14.2008 28.2954 14.2613 28.2504 14.3252 28.2601C14.7783 28.3279 15.0322 28.4905 15.08 28.7428C15.1635 29.1839 14.5424 29.7948 13.2341 30.5581C13.1778 30.591 13.1056 30.5717 13.073 30.5148Z" fill="#F0E3E7"/>
<path d="M11.9423 26.5144C11.9482 26.5928 11.7779 26.776 11.5398 26.9847C11.0282 27.433 10.2012 27.9972 10.127 27.8867L5.76953 21.3604C5.79429 20.6808 6.12496 20.2052 6.55521 20.0138C6.93419 19.8449 7.3904 19.8972 7.78292 20.2254L11.9423 26.5144Z" fill="#001CDB"/>
<path d="M11.9423 26.5144C11.9482 26.5928 11.7779 26.776 11.5397 26.9847H11.1967C11.174 26.9915 7.24302 21.0311 6.55518 20.0138C6.93418 19.8449 7.39037 19.8972 7.78291 20.2254L11.9423 26.5144Z" fill="#0027A8"/>
<path d="M7.78283 20.2258C7.57243 20.2484 7.24825 20.3656 6.91878 20.5582C6.51916 20.7912 6.11366 21.1362 5.90089 21.5577C5.03271 21.2265 4.43445 19.5861 3.68769 18.2666C3.67459 18.2441 3.51929 17.9806 3.50732 17.9575C2.86371 16.7225 4.68142 15.5494 5.50835 16.7873C6.38538 18.0585 7.68499 19.1508 7.78283 20.2258Z" fill="#F0E3E7"/>
<path d="M7.78283 20.2258C7.57243 20.2484 7.24825 20.3656 6.91878 20.5582C4.40146 15.4174 3.68769 18.2666 3.68769 18.2666C3.62562 18.1598 3.66912 18.2356 3.50732 17.9575C2.86371 16.7225 4.68142 15.5494 5.50835 16.7873C6.38538 18.0585 7.68499 19.1508 7.78283 20.2258Z" fill="#E4D1D7"/>
<path d="M13.2779 30.3229C13.2225 30.588 12.9143 30.4698 12.1693 29.8382L11.1968 29.0125C11.3046 28.5445 11.551 28.1954 11.9435 28.0337C12.0738 27.9796 12.22 27.9463 12.3832 27.9362C12.4911 27.9291 12.6066 27.9326 12.7292 27.9469C12.7597 28.0578 13.0762 29.2109 13.1212 29.3744C13.245 29.8252 13.3133 30.1528 13.2779 30.3229Z" fill="#001CDB"/>
<path d="M13.2778 30.3229C12.8558 29.2758 12 28.2935 12 28.2935L12.3831 27.9362C12.491 27.9291 12.6065 27.9326 12.7291 27.9469C12.7595 28.0578 13.0761 29.2109 13.121 29.3744C13.2448 29.8252 13.3132 30.1528 13.2778 30.3229Z" fill="#0027A8"/>
<path d="M12.7291 27.947C12.4521 28.0386 12.2099 28.1593 12 28.2936C11.6441 28.5207 11.38 28.7866 11.1967 29.0125C10.5914 28.8271 10.2554 28.3506 10.127 27.887C10.2873 27.592 10.5867 27.1812 11.1095 26.863C11.3405 26.7228 11.6158 26.6002 11.9423 26.5146C12.3354 26.7043 12.8364 27.5831 12.7291 27.947Z" fill="#F0E3E7"/>
<path d="M12.7291 27.947C12.452 28.0386 12.2098 28.1593 12 28.2936C11.9958 28.2234 11.9799 28.1373 11.9434 28.0338C11.8503 27.7674 11.6216 27.3863 11.11 26.8637L11.1094 26.863C11.3404 26.7228 11.6157 26.6002 11.9422 26.5146C12.3353 26.7043 12.8363 27.5831 12.7291 27.947Z" fill="#E4D1D7"/>
</g>
<path d="M28.1385 28.421H26.7164V27.1977C26.7164 27.0659 26.6082 26.959 26.4749 26.959C26.3415 26.959 26.2333 27.0659 26.2333 27.1977V28.421H24.6878C24.5544 28.421 24.4463 28.5278 24.4463 28.6596C24.4463 28.7917 24.5544 28.8986 24.6878 28.8986H26.2333V30.1217C26.2333 30.2536 26.3415 30.3604 26.4749 30.3604C26.6082 30.3604 26.7164 30.2536 26.7164 30.1217V28.8986H28.1385C28.272 28.8986 28.3802 28.7917 28.3802 28.6596C28.3802 28.5278 28.272 28.421 28.1385 28.421Z" fill="#FFEC4F"/>
</g>
<defs>
<clipPath id="clip0_13269_54548">
<rect width="34" height="36" fill="white"/>
</clipPath>
</defs>
</svg>
