<svg width="34" height="36" viewBox="0 0 34 36" fill="none" xmlns="http://www.w3.org/2000/svg">
<g clip-path="url(#clip0_13269_54542)">
<path d="M7.18109 5.45394C7.98116 2.44181 11.0502 0.654276 14.0361 1.46137L28.4532 5.35838C31.439 6.16546 33.2109 9.26158 32.4106 12.2737L28.5478 26.8175C27.7477 29.8295 24.6786 31.6171 21.6928 30.81L7.27582 26.9131C4.28997 26.106 2.51803 23.0099 3.31808 19.9978L7.18109 5.45394Z" fill="#A8CFFF"/>
<path d="M14.9321 5.74422H13.5099V4.52099C13.5099 4.38912 13.4017 4.28223 13.2683 4.28223C13.1349 4.28223 13.0268 4.38912 13.0268 4.52099V5.74422H11.4813C11.3479 5.74422 11.2397 5.85115 11.2397 5.98301C11.2397 6.11488 11.3479 6.22178 11.4813 6.22178H13.0268V7.44501C13.0268 7.57688 13.1349 7.6838 13.2683 7.6838C13.4017 7.6838 13.5099 7.57688 13.5099 7.44501V6.22178H14.9321C15.0655 6.22178 15.1736 6.11488 15.1736 5.98301C15.1736 5.85115 15.0655 5.74422 14.9321 5.74422Z" fill="#FFEC4F"/>
<path d="M0.140625 16.7001C0.140625 13.5379 0.140625 11.9568 0.750669 10.749C1.28728 9.68655 2.14352 8.82278 3.19669 8.28145C4.39397 7.66602 5.96128 7.66602 9.09594 7.66602H17.305C20.4396 7.66602 22.007 7.66602 23.2043 8.28145C24.2574 8.82278 25.1137 9.68655 25.6503 10.749C26.2603 11.9568 26.2603 13.5379 26.2603 16.7001V24.9814C26.2603 28.1437 26.2603 29.7247 25.6503 30.9325C25.1137 31.995 24.2574 32.859 23.2043 33.4001C22.007 34.0155 20.4396 34.0155 17.305 34.0155H9.09594C5.96128 34.0155 4.39397 34.0155 3.19669 33.4001C2.14352 32.859 1.28728 31.995 0.750669 30.9325C0.140625 29.7247 0.140625 28.1437 0.140625 24.9814V16.7001Z" fill="white" fill-opacity="0.4"/>
<path d="M9.09601 7.90137H17.3052C18.8763 7.90137 20.0408 7.90154 20.9624 7.97751C21.8812 8.05322 22.5382 8.20306 23.0984 8.491C24.1077 9.00977 24.9284 9.83771 25.4427 10.8559C25.7281 11.4211 25.8766 12.084 25.9517 13.0109C26.027 13.9406 26.0271 15.1152 26.0271 16.7001V24.9815C26.0271 26.5665 26.027 27.7412 25.9517 28.6711C25.8766 29.5977 25.7281 30.2605 25.4427 30.8257C24.9284 31.8439 24.1077 32.6719 23.0984 33.1907C22.5382 33.4787 21.8812 33.6283 20.9624 33.704C20.0408 33.78 18.8763 33.7803 17.3052 33.7803H9.09601C7.5249 33.7803 6.36061 33.78 5.43902 33.704C4.52015 33.6283 3.86302 33.4787 3.30275 33.1907C2.29348 32.6719 1.47276 31.8439 0.958509 30.8257C0.673089 30.2605 0.524559 29.5977 0.449484 28.6711C0.374184 27.7412 0.374023 26.5665 0.374023 24.9815V16.7001C0.374023 15.1152 0.374192 13.9406 0.449484 13.0109C0.524559 12.084 0.673055 11.4211 0.958509 10.8559C1.47276 9.83771 2.29348 9.00977 3.30275 8.491C3.86302 8.20303 4.52015 8.05322 5.43902 7.97751C6.36061 7.90154 7.52493 7.90137 9.09601 7.90137Z" stroke="white" stroke-opacity="0.6" stroke-width="1.65992"/>
<path d="M5.65914 22.752H4.2369V21.5288C4.2369 21.3969 4.12875 21.29 3.99536 21.29C3.86197 21.29 3.75382 21.3969 3.75382 21.5288V22.752H2.20833C2.07494 22.752 1.9668 22.859 1.9668 22.9908C1.9668 23.1227 2.07494 23.2296 2.20833 23.2296H3.75382V24.4528C3.75382 24.5847 3.86197 24.6916 3.99536 24.6916C4.12875 24.6916 4.2369 24.5847 4.2369 24.4528V23.2296H5.65914C5.79253 23.2296 5.90068 23.1227 5.90068 22.9908C5.90068 22.859 5.79253 22.752 5.65914 22.752Z" fill="#FFEC4F"/>
<mask id="mask0_13269_54542" style="mask-type:luminance" maskUnits="userSpaceOnUse" x="3" y="8" width="28" height="28">
<path d="M30.3473 8.53418H3.37207V35.7468H30.3473V8.53418Z" fill="white"/>
</mask>
<g mask="url(#mask0_13269_54542)">
<path d="M27.3441 11.7336L20.1359 34.202C19.8318 35.1491 18.9435 35.7784 17.957 35.7455L8.84014 35.4399C8.84014 35.4399 7.92914 35.4048 7.19954 34.8775C6.58622 34.4348 6.10137 33.6442 6.39436 32.2356C7.06874 28.99 10.3389 11.2029 10.3389 11.2029C10.3389 11.2029 10.7057 9.54725 12.3893 9.42763C12.7735 9.40028 24.2624 8.58345 24.9274 8.53619C25.1664 8.51918 25.4006 8.61066 25.5663 8.78544L27.0244 10.3232C27.3796 10.698 27.5028 11.2398 27.3441 11.7336Z" fill="#404077"/>
<path d="M24.8197 11.5761C24.8197 11.5761 18.8852 30.9713 18.2847 32.2679C17.6836 33.5653 16.0918 33.459 16.0918 33.459C9.0617 33.459 9.44877 33.465 9.19925 33.4468C6.91161 33.2838 7.43485 31.5386 7.43485 31.5386L10.8114 13.0963C10.8114 13.0963 11.0956 11.4483 11.4753 11.0759C11.8549 10.7041 12.6665 10.5903 12.6665 10.5903L14.2652 10.5123C14.2088 11.3914 15.1785 11.3914 15.1785 11.3914C15.8133 11.3793 20.4609 11.2712 21.0112 10.9662C21.6013 10.6401 21.7839 9.78974 21.7839 9.78974L23.6675 9.7041C25.4801 9.7041 24.8197 11.5761 24.8197 11.5761Z" fill="#BAEDFE"/>
<path d="M27.3443 11.7336L20.136 34.202C19.832 35.1491 18.9437 35.7784 17.9571 35.7455L8.84028 35.4399C8.84028 35.4399 7.9293 35.4048 7.19971 34.8775C7.90488 34.4124 8.57053 33.935 9.19955 33.4466C9.43977 33.4642 8.98156 33.4588 16.0921 33.4588C16.0921 33.4588 17.6839 33.5651 18.285 32.2677C18.8855 30.9711 24.82 11.5759 24.82 11.5759C24.82 11.5759 25.4804 9.70384 23.6678 9.70384L21.7842 9.78947C21.7842 9.78947 21.6016 10.6399 21.0115 10.9659C20.8581 11.051 20.3901 11.1202 19.7814 11.1765C19.7808 10.2235 19.7436 9.44991 19.7233 8.90625L24.9276 8.53619C25.1665 8.51918 25.4008 8.61066 25.5665 8.78544L27.0245 10.3232C27.3797 10.698 27.503 11.2398 27.3443 11.7336Z" fill="#404077"/>
<path d="M24.8197 11.5761C24.8197 11.5761 18.8852 30.9713 18.2846 32.2679C17.6835 33.5653 16.0917 33.459 16.0917 33.459C9.06165 33.459 9.44871 33.465 9.19922 33.4468C18.7939 26.0051 19.7845 16.1524 19.7811 11.1767C20.3897 11.1204 20.8577 11.0512 21.0112 10.9662C21.6013 10.6401 21.7838 9.78974 21.7838 9.78974L23.6674 9.7041C25.4801 9.7041 24.8197 11.5761 24.8197 11.5761Z" fill="#9AE1FF"/>
<path d="M18.3593 20.5995C15.2365 22.0665 11.5022 20.4372 11.3138 17.5423C11.2272 16.262 11.8783 15.0386 12.9765 14.1929C14.9089 12.7027 17.8509 12.6559 19.6569 14.1325C21.9254 15.9879 21.2529 19.2414 18.3593 20.5995Z" fill="#22C55E"/>
<path d="M18.9234 15.8077C14.7027 19.805 14.9952 19.5303 14.9451 19.5711C14.6651 19.7872 14.265 19.7619 14.015 19.5054L12.6499 18.1066C12.3773 17.8275 12.3808 17.3771 12.6581 17.102C12.9354 16.827 13.3813 16.8305 13.6539 17.1102L14.5358 18.014C15.7881 16.8276 15.0198 17.5554 17.9589 14.772C18.2426 14.5028 18.6885 14.5174 18.9547 14.8031C19.221 15.0892 19.207 15.5391 18.9234 15.8077Z" fill="#B4FFC6"/>
<path d="M19.0877 23.6065C19.0877 23.671 19.036 23.7238 18.9714 23.7238H10.4063C10.3424 23.7238 10.29 23.671 10.29 23.6065C10.29 23.542 10.3424 23.4893 10.4063 23.4893H18.9714C19.036 23.4893 19.0877 23.542 19.0877 23.6065Z" fill="#73AEFF"/>
<path d="M18.2737 26.6563C18.2737 26.7208 18.222 26.7736 18.1575 26.7736H9.59235C9.5284 26.7736 9.47607 26.7208 9.47607 26.6563C9.47607 26.5918 9.5284 26.5391 9.59235 26.5391H18.1575C18.222 26.5391 18.2737 26.5918 18.2737 26.6563Z" fill="#73AEFF"/>
<path d="M18.3594 20.5989C19.1239 18.2518 19.4907 16.0338 19.657 14.1318C21.9255 15.9873 21.253 19.2407 18.3594 20.5989Z" fill="#16A34A"/>
<path d="M13.2389 29.6464L13.2386 29.6467C13.2184 29.6124 13.1815 29.5889 13.1389 29.5889H8.85602C8.79207 29.5889 8.73975 29.6419 8.73975 29.7062C8.73975 29.7709 8.79207 29.8236 8.85602 29.8236C13.4511 29.8236 13.1419 29.8261 13.1671 29.8196C13.2422 29.8003 13.2781 29.713 13.2389 29.6464Z" fill="#73AEFF"/>
</g>
</g>
<defs>
<clipPath id="clip0_13269_54542">
<rect width="34" height="36" fill="white"/>
</clipPath>
</defs>
</svg>
